<svg xmlns="http://www.w3.org/2000/svg" xmlns:xlink="http://www.w3.org/1999/xlink" width="900" zoomAndPan="magnify" viewBox="0 0 675 675.000002" height="900" preserveAspectRatio="xMidYMid meet" version="1.0"><defs><clipPath id="87cf8f3f2a"><path d="M 0.5 0 L 674.5 0 L 674.5 674 L 0.5 674 Z M 0.5 0 " clip-rule="nonzero"/></clipPath><clipPath id="ff974be646"><path d="M 486 177 L 502 177 L 502 193 L 486 193 Z M 486 177 " clip-rule="nonzero"/></clipPath><clipPath id="a2c2ceba0e"><path d="M 495.808594 171.601562 L 507.097656 182.894531 L 497.320312 192.675781 L 486.027344 181.382812 Z M 495.808594 171.601562 " clip-rule="nonzero"/></clipPath><clipPath id="001baf5ff7"><path d="M 486.027344 181.382812 L 501.453125 177.25 L 497.320312 192.675781 Z M 486.027344 181.382812 " clip-rule="nonzero"/></clipPath><clipPath id="9b821ad2c1"><path d="M 238 108 L 441 108 L 441 248 L 238 248 Z M 238 108 " clip-rule="nonzero"/></clipPath><clipPath id="3933b1f2f9"><path d="M 294.222656 76.007812 L 445.328125 132.527344 L 387.042969 288.351562 L 235.941406 231.835938 Z M 294.222656 76.007812 " clip-rule="nonzero"/></clipPath><clipPath id="78bbddc5d6"><path d="M 279.363281 247.980469 L 238.683594 224.496094 L 305.707031 108.355469 L 366.457031 166.585938 L 403.003906 116.695312 L 440.835938 144.535156 L 372.5625 237.574219 L 316.390625 183.769531 Z M 279.363281 247.980469 " clip-rule="nonzero"/></clipPath><clipPath id="97f0bada82"><path d="M 220 271 L 457 271 L 457 434 L 220 434 Z M 220 271 " clip-rule="nonzero"/></clipPath><clipPath id="47d9c58480"><path d="M 288.003906 234.09375 L 462.472656 303.234375 L 391.167969 483.160156 L 216.699219 414.015625 Z M 288.003906 234.09375 " clip-rule="nonzero"/></clipPath><clipPath id="12195c8721"><path d="M 266.84375 433.773438 L 220.058594 405.542969 L 300.625 271.972656 L 369.972656 341.070312 L 413.605469 283.871094 L 456.980469 317.101562 L 375.472656 423.773438 L 311.355469 359.929688 Z M 266.84375 433.773438 " clip-rule="nonzero"/></clipPath><clipPath id="c8feabecd7"><path d="M 26 197 L 295 197 L 295 601 L 26 601 Z M 26 197 " clip-rule="nonzero"/></clipPath><clipPath id="11acc9ef87"><path d="M 254.90625 197.023438 L 294.917969 221.082031 L 66.855469 600.429688 L 26.84375 576.371094 Z M 254.90625 197.023438 " clip-rule="nonzero"/></clipPath><clipPath id="21e1ea3138"><path d="M 254.90625 197.023438 L 294.917969 221.082031 L 66.859375 600.425781 L 26.84375 576.367188 Z M 254.90625 197.023438 " clip-rule="nonzero"/></clipPath><clipPath id="ec121c712a"><path d="M 64.457031 553.726562 L 561.035156 553.726562 L 561.035156 600.414062 L 64.457031 600.414062 Z M 64.457031 553.726562 " clip-rule="nonzero"/></clipPath><clipPath id="880b50c185"><path d="M 121 373 L 287 373 L 287 593 L 121 593 Z M 121 373 " clip-rule="nonzero"/></clipPath><clipPath id="e71cc2cf0b"><path d="M 239.789062 373.363281 L 286.339844 402.386719 L 167.644531 592.785156 L 121.089844 563.761719 Z M 239.789062 373.363281 " clip-rule="nonzero"/></clipPath><clipPath id="ecfac8d326"><path d="M 239.789062 373.363281 L 286.339844 402.386719 L 167.65625 592.761719 L 121.101562 563.738281 Z M 239.789062 373.363281 " clip-rule="nonzero"/></clipPath><clipPath id="4cda989c07"><path d="M 356 145 L 563 145 L 563 393 L 356 393 Z M 356 145 " clip-rule="nonzero"/></clipPath><clipPath id="8e82dd057d"><path d="M 519.480469 145.101562 L 562.488281 177.6875 L 399.445312 392.886719 L 356.4375 360.300781 Z M 519.480469 145.101562 " clip-rule="nonzero"/></clipPath><clipPath id="5de59a3973"><path d="M 519.480469 145.101562 L 562.488281 177.6875 L 399.507812 392.796875 L 356.503906 360.214844 Z M 519.480469 145.101562 " clip-rule="nonzero"/></clipPath><clipPath id="d67f418f0c"><path d="M 508 128 L 563 128 L 563 191 L 508 191 Z M 508 128 " clip-rule="nonzero"/></clipPath><clipPath id="4c099800d8"><path d="M 589.597656 174.835938 L 536.054688 206.632812 L 508.519531 160.261719 L 562.066406 128.464844 Z M 589.597656 174.835938 " clip-rule="nonzero"/></clipPath><clipPath id="7441c34d0f"><path d="M 562.066406 128.464844 L 562.828125 190.734375 L 508.519531 160.261719 Z M 562.066406 128.464844 " clip-rule="nonzero"/></clipPath><clipPath id="a99771f87c"><path d="M 508.535156 182.132812 L 562.492188 182.132812 L 562.492188 600.421875 L 508.535156 600.421875 Z M 508.535156 182.132812 " clip-rule="nonzero"/></clipPath><clipPath id="4e234d2459"><path d="M 0.5 540.171875 L 119.894531 540.171875 L 119.894531 600.414062 L 0.5 600.414062 Z M 0.5 540.171875 " clip-rule="nonzero"/></clipPath><clipPath id="548949c526"><path d="M 119.894531 600.414062 L 60.191406 540.171875 L 0.488281 600.414062 Z M 119.894531 600.414062 " clip-rule="nonzero"/></clipPath><clipPath id="e121dd6ebc"><path d="M 507 81 L 605 81 L 605 170 L 507 170 Z M 507 81 " clip-rule="nonzero"/></clipPath><clipPath id="f90ea7b0ce"><path d="M 514.015625 77.523438 L 611.332031 85.507812 L 604.417969 169.78125 L 507.101562 161.796875 Z M 514.015625 77.523438 " clip-rule="nonzero"/></clipPath><clipPath id="c0a69bca1f"><path d="M 507.101562 161.796875 L 562.675781 81.515625 L 604.417969 169.78125 Z M 507.101562 161.796875 " clip-rule="nonzero"/></clipPath><clipPath id="be9a31b4fa"><path d="M 537 121 L 563 121 L 563 139 L 537 139 Z M 537 121 " clip-rule="nonzero"/></clipPath><clipPath id="0c86b53da2"><path d="M 537.992188 121.328125 L 554.945312 113.757812 L 562.5 130.679688 L 545.546875 138.25 Z M 537.992188 121.328125 " clip-rule="nonzero"/></clipPath><clipPath id="9556d2b60d"><path d="M 562.492188 130.683594 L 545.546875 138.25 L 537.992188 121.328125 Z M 562.492188 130.683594 " clip-rule="nonzero"/></clipPath><clipPath id="c4691e5f22"><path d="M 562.480469 73.585938 L 674.488281 73.585938 L 674.488281 202.925781 L 562.480469 202.925781 Z M 562.480469 73.585938 " clip-rule="nonzero"/></clipPath><clipPath id="0e71db4466"><path d="M 562.480469 73.585938 L 674.488281 138.253906 L 562.480469 202.925781 Z M 562.480469 73.585938 " clip-rule="nonzero"/></clipPath></defs><g clip-path="url(#87cf8f3f2a)"><path fill="#ffffff" d="M 0.5 0 L 674.5 0 L 674.5 674 L 0.5 674 Z M 0.5 0 " fill-opacity="1" fill-rule="nonzero"/><path fill="#000000" d="M 0.5 0 L 674.5 0 L 674.5 674 L 0.5 674 Z M 0.5 0 " fill-opacity="1" fill-rule="nonzero"/></g><g clip-path="url(#ff974be646)"><g clip-path="url(#a2c2ceba0e)"><g clip-path="url(#001baf5ff7)"><path fill="#a6a6a6" d="M 495.808594 171.601562 L 507.097656 182.894531 L 497.320312 192.675781 L 486.027344 181.382812 Z M 495.808594 171.601562 " fill-opacity="1" fill-rule="nonzero"/></g></g></g><g clip-path="url(#9b821ad2c1)"><g clip-path="url(#3933b1f2f9)"><g clip-path="url(#78bbddc5d6)"><path fill="#ffffff" d="M 294.222656 76.007812 L 445.328125 132.527344 L 387.042969 288.351562 L 235.941406 231.835938 Z M 294.222656 76.007812 " fill-opacity="1" fill-rule="nonzero"/></g></g></g><g clip-path="url(#97f0bada82)"><g clip-path="url(#47d9c58480)"><g clip-path="url(#12195c8721)"><path fill="#ffffff" d="M 288.003906 234.09375 L 462.472656 303.234375 L 391.167969 483.160156 L 216.699219 414.015625 Z M 288.003906 234.09375 " fill-opacity="1" fill-rule="nonzero"/></g></g></g><g clip-path="url(#c8feabecd7)"><g clip-path="url(#11acc9ef87)"><g clip-path="url(#21e1ea3138)"><path fill="#ffffff" d="M 254.90625 197.023438 L 294.917969 221.082031 L 66.855469 600.429688 L 26.84375 576.371094 Z M 254.90625 197.023438 " fill-opacity="1" fill-rule="nonzero"/></g></g></g><g clip-path="url(#ec121c712a)"><path fill="#ffffff" d="M 561.035156 553.726562 L 561.035156 600.414062 L 64.425781 600.414062 L 64.425781 553.726562 Z M 561.035156 553.726562 " fill-opacity="1" fill-rule="nonzero"/></g><g clip-path="url(#880b50c185)"><g clip-path="url(#e71cc2cf0b)"><g clip-path="url(#ecfac8d326)"><path fill="#ffffff" d="M 239.789062 373.363281 L 286.339844 402.386719 L 167.644531 592.785156 L 121.089844 563.761719 Z M 239.789062 373.363281 " fill-opacity="1" fill-rule="nonzero"/></g></g></g><g clip-path="url(#4cda989c07)"><g clip-path="url(#8e82dd057d)"><g clip-path="url(#5de59a3973)"><path fill="#ffffff" d="M 519.480469 145.101562 L 562.488281 177.6875 L 399.570312 392.71875 L 356.566406 360.132812 Z M 519.480469 145.101562 " fill-opacity="1" fill-rule="nonzero"/></g></g></g><g clip-path="url(#d67f418f0c)"><g clip-path="url(#4c099800d8)"><g clip-path="url(#7441c34d0f)"><path fill="#ffffff" d="M 589.597656 174.835938 L 536.054688 206.632812 L 508.519531 160.261719 L 562.066406 128.464844 Z M 589.597656 174.835938 " fill-opacity="1" fill-rule="nonzero"/></g></g></g><g clip-path="url(#a99771f87c)"><path fill="#ffffff" d="M 508.535156 182.132812 L 562.492188 182.132812 L 562.492188 600.5 L 508.535156 600.5 Z M 508.535156 182.132812 " fill-opacity="1" fill-rule="nonzero"/></g><g clip-path="url(#4e234d2459)"><g clip-path="url(#548949c526)"><path fill="#ffffff" d="M 119.894531 600.414062 L 0.589844 600.414062 L 0.589844 540.171875 L 119.894531 540.171875 Z M 119.894531 600.414062 " fill-opacity="1" fill-rule="nonzero"/></g></g><g clip-path="url(#e121dd6ebc)"><g clip-path="url(#f90ea7b0ce)"><g clip-path="url(#c0a69bca1f)"><path fill="#ffffff" d="M 514.015625 77.523438 L 611.332031 85.507812 L 604.417969 169.78125 L 507.101562 161.796875 Z M 514.015625 77.523438 " fill-opacity="1" fill-rule="nonzero"/></g></g></g><g clip-path="url(#be9a31b4fa)"><g clip-path="url(#0c86b53da2)"><g clip-path="url(#9556d2b60d)"><path fill="#ffffff" d="M 537.992188 121.328125 L 554.945312 113.757812 L 562.5 130.679688 L 545.546875 138.25 Z M 537.992188 121.328125 " fill-opacity="1" fill-rule="nonzero"/></g></g></g><g clip-path="url(#c4691e5f22)"><g clip-path="url(#0e71db4466)"><path fill="#000000" d="M 674.488281 73.585938 L 674.488281 202.925781 L 562.480469 202.925781 L 562.480469 73.585938 Z M 674.488281 73.585938 " fill-opacity="1" fill-rule="nonzero"/></g></g></svg>