<svg xmlns="http://www.w3.org/2000/svg" xmlns:xlink="http://www.w3.org/1999/xlink" width="300" zoomAndPan="magnify" viewBox="0 0 224.87999 225" height="300" preserveAspectRatio="xMidYMid meet" version="1.0"><defs><g/><clipPath id="fe1fa1b9d9"><path d="M 0 1.464844 L 224.761719 1.464844 L 224.761719 223.347656 L 0 223.347656 Z M 0 1.464844 " clip-rule="nonzero"/></clipPath></defs><g clip-path="url(#fe1fa1b9d9)"><path fill="#636363" d="M 0.261719 126.082031 C 0.402344 126.082031 0.515625 126.195312 0.515625 126.339844 C 0.515625 126.480469 0.402344 126.59375 0.261719 126.59375 C 0.121094 126.59375 0.00390625 126.480469 0.00390625 126.339844 C 0.00390625 126.195312 0.121094 126.082031 0.261719 126.082031 Z M 224.617188 98.910156 C 224.476562 98.910156 224.363281 98.792969 224.363281 98.652344 C 224.363281 98.511719 224.476562 98.398438 224.617188 98.398438 C 224.757812 98.398438 224.882812 98.511719 224.882812 98.652344 C 224.882812 98.792969 224.761719 98.910156 224.617188 98.910156 Z M 224.617188 2.015625 C 224.476562 2.015625 224.363281 1.902344 224.363281 1.761719 C 224.363281 1.617188 224.476562 1.496094 224.617188 1.496094 C 224.757812 1.496094 224.882812 1.617188 224.882812 1.761719 C 224.882812 1.902344 224.761719 2.015625 224.617188 2.015625 Z M 126.476562 2.015625 C 126.335938 2.015625 126.21875 1.902344 126.21875 1.761719 C 126.21875 1.617188 126.335938 1.496094 126.476562 1.496094 C 126.617188 1.496094 126.734375 1.617188 126.734375 1.761719 C 126.734375 1.902344 126.617188 2.015625 126.476562 2.015625 Z M 140.5 2.015625 C 140.351562 2.015625 140.234375 1.902344 140.234375 1.761719 C 140.234375 1.617188 140.351562 1.496094 140.5 1.496094 C 140.640625 1.496094 140.757812 1.617188 140.757812 1.761719 C 140.757812 1.902344 140.644531 2.015625 140.5 2.015625 Z M 154.515625 2.015625 C 154.375 2.015625 154.257812 1.902344 154.257812 1.761719 C 154.257812 1.617188 154.375 1.496094 154.515625 1.496094 C 154.65625 1.496094 154.773438 1.617188 154.773438 1.761719 C 154.773438 1.902344 154.65625 2.015625 154.515625 2.015625 Z M 168.539062 2.015625 C 168.398438 2.015625 168.285156 1.902344 168.285156 1.761719 C 168.285156 1.617188 168.398438 1.496094 168.539062 1.496094 C 168.683594 1.496094 168.796875 1.617188 168.796875 1.761719 C 168.796875 1.902344 168.683594 2.015625 168.539062 2.015625 Z M 182.554688 2.015625 C 182.414062 2.015625 182.296875 1.902344 182.296875 1.761719 C 182.296875 1.617188 182.414062 1.496094 182.554688 1.496094 C 182.707031 1.496094 182.820312 1.617188 182.820312 1.761719 C 182.820312 1.902344 182.707031 2.015625 182.554688 2.015625 Z M 196.578125 2.015625 C 196.4375 2.015625 196.324219 1.902344 196.324219 1.761719 C 196.324219 1.617188 196.4375 1.496094 196.578125 1.496094 C 196.71875 1.496094 196.835938 1.617188 196.835938 1.761719 C 196.835938 1.902344 196.722656 2.015625 196.578125 2.015625 Z M 210.601562 2.015625 C 210.460938 2.015625 210.347656 1.902344 210.347656 1.761719 C 210.347656 1.617188 210.460938 1.496094 210.601562 1.496094 C 210.746094 1.496094 210.859375 1.617188 210.859375 1.761719 C 210.859375 1.902344 210.746094 2.015625 210.601562 2.015625 Z M 224.617188 15.855469 C 224.476562 15.855469 224.363281 15.738281 224.363281 15.597656 C 224.363281 15.457031 224.476562 15.339844 224.617188 15.339844 C 224.757812 15.339844 224.882812 15.457031 224.882812 15.597656 C 224.882812 15.738281 224.761719 15.855469 224.617188 15.855469 Z M 126.476562 16.21875 C 126.132812 16.21875 125.859375 15.945312 125.859375 15.597656 C 125.859375 15.253906 126.132812 14.980469 126.476562 14.980469 C 126.824219 14.980469 127.097656 15.253906 127.097656 15.597656 C 127.097656 15.945312 126.824219 16.21875 126.476562 16.21875 Z M 140.5 16.171875 C 140.183594 16.171875 139.925781 15.917969 139.925781 15.597656 C 139.925781 15.289062 140.183594 15.03125 140.5 15.03125 C 140.8125 15.03125 141.066406 15.289062 141.066406 15.597656 C 141.066406 15.917969 140.8125 16.171875 140.5 16.171875 Z M 154.515625 16.121094 C 154.234375 16.121094 154.003906 15.882812 154.003906 15.597656 C 154.003906 15.316406 154.234375 15.085938 154.515625 15.085938 C 154.808594 15.085938 155.039062 15.316406 155.039062 15.597656 C 155.039062 15.882812 154.808594 16.121094 154.515625 16.121094 Z M 168.539062 16.066406 C 168.285156 16.066406 168.070312 15.855469 168.070312 15.597656 C 168.070312 15.34375 168.285156 15.128906 168.539062 15.128906 C 168.796875 15.128906 169.007812 15.34375 169.007812 15.597656 C 169.007812 15.855469 168.796875 16.066406 168.539062 16.066406 Z M 182.554688 16.015625 C 182.332031 16.015625 182.148438 15.828125 182.148438 15.597656 C 182.148438 15.367188 182.332031 15.183594 182.554688 15.183594 C 182.785156 15.183594 182.972656 15.367188 182.972656 15.597656 C 182.972656 15.828125 182.785156 16.015625 182.554688 16.015625 Z M 196.578125 15.960938 C 196.382812 15.960938 196.214844 15.800781 196.214844 15.597656 C 196.214844 15.402344 196.382812 15.234375 196.578125 15.234375 C 196.78125 15.234375 196.941406 15.402344 196.941406 15.597656 C 196.941406 15.800781 196.78125 15.960938 196.578125 15.960938 Z M 210.601562 15.910156 C 210.425781 15.910156 210.292969 15.765625 210.292969 15.597656 C 210.292969 15.429688 210.425781 15.289062 210.601562 15.289062 C 210.769531 15.289062 210.914062 15.429688 210.914062 15.597656 C 210.914062 15.765625 210.773438 15.910156 210.601562 15.910156 Z M 224.617188 29.703125 C 224.476562 29.703125 224.363281 29.585938 224.363281 29.445312 C 224.363281 29.304688 224.476562 29.1875 224.617188 29.1875 C 224.757812 29.1875 224.882812 29.304688 224.882812 29.445312 C 224.882812 29.585938 224.761719 29.703125 224.617188 29.703125 Z M 126.476562 30.429688 C 125.929688 30.429688 125.484375 29.984375 125.484375 29.445312 C 125.484375 28.894531 125.929688 28.453125 126.476562 28.453125 C 127.027344 28.453125 127.460938 28.894531 127.460938 29.445312 C 127.460938 29.984375 127.027344 30.429688 126.476562 30.429688 Z M 140.5 30.320312 C 140.003906 30.320312 139.617188 29.933594 139.617188 29.445312 C 139.617188 28.957031 140.003906 28.558594 140.5 28.558594 C 140.988281 28.558594 141.378906 28.957031 141.378906 29.445312 C 141.378906 29.933594 140.988281 30.320312 140.5 30.320312 Z M 154.515625 30.222656 C 154.089844 30.222656 153.738281 29.871094 153.738281 29.445312 C 153.738281 29.011719 154.089844 28.664062 154.515625 28.664062 C 154.949219 28.664062 155.296875 29.011719 155.296875 29.445312 C 155.296875 29.871094 154.949219 30.222656 154.515625 30.222656 Z M 168.539062 30.117188 C 168.167969 30.117188 167.867188 29.816406 167.867188 29.445312 C 167.867188 29.074219 168.167969 28.761719 168.539062 28.761719 C 168.910156 28.761719 169.214844 29.074219 169.214844 29.445312 C 169.214844 29.816406 168.910156 30.117188 168.539062 30.117188 Z M 182.554688 30.011719 C 182.246094 30.011719 181.988281 29.753906 181.988281 29.445312 C 181.988281 29.125 182.246094 28.867188 182.554688 28.867188 C 182.875 28.867188 183.128906 29.125 183.128906 29.445312 C 183.128906 29.753906 182.875 30.011719 182.554688 30.011719 Z M 196.578125 29.90625 C 196.324219 29.90625 196.109375 29.703125 196.109375 29.445312 C 196.109375 29.1875 196.324219 28.976562 196.578125 28.976562 C 196.835938 28.976562 197.046875 29.1875 197.046875 29.445312 C 197.050781 29.703125 196.835938 29.90625 196.578125 29.90625 Z M 210.601562 29.808594 C 210.398438 29.808594 210.238281 29.640625 210.238281 29.445312 C 210.238281 29.242188 210.398438 29.082031 210.601562 29.082031 C 210.796875 29.082031 210.964844 29.242188 210.964844 29.445312 C 210.964844 29.640625 210.796875 29.808594 210.601562 29.808594 Z M 224.617188 43.539062 C 224.476562 43.539062 224.363281 43.425781 224.363281 43.28125 C 224.363281 43.140625 224.476562 43.027344 224.617188 43.027344 C 224.757812 43.027344 224.882812 43.140625 224.882812 43.28125 C 224.882812 43.425781 224.761719 43.539062 224.617188 43.539062 Z M 126.476562 44.636719 C 125.734375 44.636719 125.121094 44.035156 125.121094 43.285156 C 125.121094 42.539062 125.734375 41.929688 126.476562 41.929688 C 127.222656 41.929688 127.832031 42.539062 127.832031 43.285156 C 127.832031 44.035156 127.222656 44.636719 126.476562 44.636719 Z M 140.5 44.476562 C 139.835938 44.476562 139.296875 43.949219 139.296875 43.28125 C 139.296875 42.628906 139.835938 42.085938 140.5 42.085938 C 141.15625 42.085938 141.695312 42.628906 141.695312 43.28125 C 141.695312 43.949219 141.15625 44.476562 140.5 44.476562 Z M 154.515625 44.328125 C 153.941406 44.328125 153.480469 43.859375 153.480469 43.28125 C 153.480469 42.707031 153.941406 42.246094 154.515625 42.246094 C 155.089844 42.246094 155.5625 42.707031 155.5625 43.28125 C 155.5625 43.859375 155.089844 44.328125 154.515625 44.328125 Z M 168.539062 44.167969 C 168.050781 44.167969 167.65625 43.769531 167.65625 43.28125 C 167.65625 42.796875 168.054688 42.398438 168.539062 42.398438 C 169.027344 42.398438 169.425781 42.796875 169.425781 43.28125 C 169.425781 43.769531 169.027344 44.167969 168.539062 44.167969 Z M 182.554688 44.007812 C 182.15625 44.007812 181.828125 43.691406 181.828125 43.285156 C 181.828125 42.886719 182.15625 42.558594 182.554688 42.558594 C 182.960938 42.558594 183.289062 42.886719 183.289062 43.285156 C 183.289062 43.691406 182.960938 44.007812 182.554688 44.007812 Z M 196.578125 43.859375 C 196.269531 43.859375 196.011719 43.601562 196.011719 43.285156 C 196.011719 42.972656 196.269531 42.71875 196.578125 42.71875 C 196.898438 42.71875 197.152344 42.972656 197.152344 43.285156 C 197.15625 43.601562 196.898438 43.859375 196.578125 43.859375 Z M 210.601562 43.699219 C 210.375 43.699219 210.1875 43.515625 210.1875 43.28125 C 210.1875 43.054688 210.371094 42.867188 210.601562 42.867188 C 210.832031 42.867188 211.019531 43.050781 211.019531 43.28125 C 211.019531 43.515625 210.832031 43.699219 210.601562 43.699219 Z M 224.617188 57.386719 C 224.476562 57.386719 224.363281 57.273438 224.363281 57.128906 C 224.363281 56.988281 224.476562 56.875 224.617188 56.875 C 224.757812 56.875 224.882812 56.988281 224.882812 57.128906 C 224.882812 57.273438 224.761719 57.386719 224.617188 57.386719 Z M 126.476562 58.847656 C 125.53125 58.847656 124.757812 58.078125 124.757812 57.128906 C 124.757812 56.183594 125.527344 55.414062 126.476562 55.414062 C 127.425781 55.414062 128.195312 56.183594 128.195312 57.128906 C 128.195312 58.078125 127.425781 58.847656 126.476562 58.847656 Z M 140.5 58.636719 C 139.660156 58.636719 138.988281 57.960938 138.988281 57.128906 C 138.988281 56.296875 139.660156 55.617188 140.5 55.617188 C 141.332031 55.617188 142.007812 56.296875 142.007812 57.128906 C 142.007812 57.960938 141.332031 58.636719 140.5 58.636719 Z M 154.515625 58.433594 C 153.800781 58.433594 153.214844 57.847656 153.214844 57.128906 C 153.214844 56.414062 153.800781 55.828125 154.515625 55.828125 C 155.234375 55.828125 155.816406 56.414062 155.816406 57.128906 C 155.816406 57.847656 155.234375 58.433594 154.515625 58.433594 Z M 168.539062 58.21875 C 167.9375 58.21875 167.449219 57.730469 167.449219 57.128906 C 167.449219 56.527344 167.9375 56.03125 168.539062 56.03125 C 169.140625 56.03125 169.628906 56.527344 169.628906 57.128906 C 169.628906 57.730469 169.140625 58.21875 168.539062 58.21875 Z M 182.554688 58.007812 C 182.066406 58.007812 181.679688 57.617188 181.679688 57.128906 C 181.679688 56.640625 182.066406 56.246094 182.554688 56.246094 C 183.050781 56.246094 183.441406 56.644531 183.441406 57.128906 C 183.441406 57.617188 183.050781 58.007812 182.554688 58.007812 Z M 196.578125 57.804688 C 196.207031 57.804688 195.90625 57.503906 195.90625 57.128906 C 195.90625 56.757812 196.207031 56.449219 196.578125 56.449219 C 196.949219 56.449219 197.253906 56.757812 197.253906 57.128906 C 197.253906 57.503906 196.949219 57.804688 196.578125 57.804688 Z M 210.601562 57.589844 C 210.347656 57.589844 210.132812 57.386719 210.132812 57.128906 C 210.132812 56.875 210.347656 56.660156 210.601562 56.660156 C 210.859375 56.660156 211.0625 56.875 211.0625 57.128906 C 211.0625 57.386719 210.859375 57.589844 210.601562 57.589844 Z M 224.617188 71.226562 C 224.476562 71.226562 224.363281 71.109375 224.363281 70.96875 C 224.363281 70.828125 224.476562 70.710938 224.617188 70.710938 C 224.757812 70.710938 224.882812 70.828125 224.882812 70.96875 C 224.882812 71.109375 224.761719 71.226562 224.617188 71.226562 Z M 126.476562 73.050781 C 125.324219 73.050781 124.398438 72.121094 124.398438 70.96875 C 124.398438 69.816406 125.324219 68.886719 126.476562 68.886719 C 127.628906 68.886719 128.558594 69.816406 128.558594 70.96875 C 128.558594 72.117188 127.628906 73.050781 126.476562 73.050781 Z M 140.5 72.792969 C 139.492188 72.792969 138.675781 71.976562 138.675781 70.96875 C 138.675781 69.96875 139.492188 69.152344 140.5 69.152344 C 141.5 69.152344 142.316406 69.96875 142.316406 70.96875 C 142.316406 71.976562 141.5 72.792969 140.5 72.792969 Z M 154.515625 72.527344 C 153.65625 72.527344 152.957031 71.835938 152.957031 70.96875 C 152.957031 70.109375 153.65625 69.410156 154.515625 69.410156 C 155.382812 69.410156 156.074219 70.109375 156.074219 70.96875 C 156.074219 71.835938 155.382812 72.527344 154.515625 72.527344 Z M 168.539062 72.269531 C 167.824219 72.269531 167.238281 71.683594 167.238281 70.96875 C 167.238281 70.25 167.824219 69.667969 168.539062 69.667969 C 169.257812 69.667969 169.839844 70.25 169.839844 70.96875 C 169.839844 71.683594 169.257812 72.269531 168.539062 72.269531 Z M 182.554688 72.011719 C 181.988281 72.011719 181.519531 71.542969 181.519531 70.96875 C 181.519531 70.394531 181.988281 69.933594 182.554688 69.933594 C 183.128906 69.933594 183.601562 70.394531 183.601562 70.96875 C 183.601562 71.542969 183.128906 72.011719 182.554688 72.011719 Z M 196.578125 71.746094 C 196.15625 71.746094 195.800781 71.402344 195.800781 70.96875 C 195.800781 70.542969 196.15625 70.191406 196.578125 70.191406 C 197.011719 70.191406 197.359375 70.542969 197.359375 70.96875 C 197.359375 71.402344 197.011719 71.746094 196.578125 71.746094 Z M 210.601562 71.492188 C 210.308594 71.492188 210.082031 71.261719 210.082031 70.96875 C 210.082031 70.683594 210.308594 70.453125 210.601562 70.453125 C 210.886719 70.453125 211.117188 70.683594 211.117188 70.96875 C 211.117188 71.261719 210.886719 71.492188 210.601562 71.492188 Z M 224.617188 85.070312 C 224.476562 85.070312 224.363281 84.957031 224.363281 84.816406 C 224.363281 84.675781 224.476562 84.558594 224.617188 84.558594 C 224.757812 84.558594 224.882812 84.675781 224.882812 84.816406 C 224.882812 84.957031 224.761719 85.070312 224.617188 85.070312 Z M 126.476562 87.257812 C 125.121094 87.257812 124.035156 86.160156 124.035156 84.8125 C 124.035156 83.460938 125.121094 82.363281 126.476562 82.363281 C 127.832031 82.363281 128.921875 83.460938 128.921875 84.8125 C 128.921875 86.160156 127.832031 87.257812 126.476562 87.257812 Z M 140.5 86.949219 C 139.316406 86.949219 138.367188 85.992188 138.367188 84.816406 C 138.367188 83.636719 139.3125 82.683594 140.5 82.683594 C 141.679688 82.683594 142.636719 83.636719 142.636719 84.816406 C 142.636719 85.992188 141.679688 86.949219 140.5 86.949219 Z M 154.515625 86.628906 C 153.515625 86.628906 152.703125 85.816406 152.703125 84.816406 C 152.703125 83.804688 153.515625 82.992188 154.515625 82.992188 C 155.523438 82.992188 156.339844 83.804688 156.339844 84.816406 C 156.339844 85.816406 155.523438 86.628906 154.515625 86.628906 Z M 168.539062 86.320312 C 167.707031 86.320312 167.027344 85.648438 167.027344 84.816406 C 167.027344 83.984375 167.707031 83.300781 168.539062 83.300781 C 169.371094 83.300781 170.046875 83.984375 170.046875 84.816406 C 170.046875 85.648438 169.371094 86.320312 168.539062 86.320312 Z M 182.554688 86.011719 C 181.898438 86.011719 181.359375 85.46875 181.359375 84.816406 C 181.359375 84.152344 181.898438 83.621094 182.554688 83.621094 C 183.21875 83.621094 183.757812 84.152344 183.757812 84.816406 C 183.757812 85.46875 183.21875 86.011719 182.554688 86.011719 Z M 196.578125 85.691406 C 196.09375 85.691406 195.695312 85.300781 195.695312 84.816406 C 195.695312 84.328125 196.09375 83.929688 196.578125 83.929688 C 197.066406 83.929688 197.464844 84.328125 197.464844 84.816406 C 197.464844 85.300781 197.066406 85.691406 196.578125 85.691406 Z M 210.601562 85.382812 C 210.285156 85.382812 210.027344 85.125 210.027344 84.816406 C 210.027344 84.496094 210.285156 84.238281 210.601562 84.238281 C 210.914062 84.238281 211.167969 84.496094 211.167969 84.816406 C 211.167969 85.125 210.914062 85.382812 210.601562 85.382812 Z M 126.476562 101.46875 C 124.925781 101.46875 123.660156 100.210938 123.660156 98.652344 C 123.660156 97.105469 124.929688 95.847656 126.476562 95.847656 C 128.027344 95.847656 129.285156 97.105469 129.285156 98.652344 C 129.285156 100.210938 128.027344 101.46875 126.476562 101.46875 Z M 140.5 101.105469 C 139.144531 101.105469 138.046875 100.007812 138.046875 98.652344 C 138.046875 97.308594 139.144531 96.210938 140.5 96.210938 C 141.847656 96.210938 142.945312 97.308594 142.945312 98.652344 C 142.945312 100.007812 141.847656 101.105469 140.5 101.105469 Z M 154.515625 100.734375 C 153.367188 100.734375 152.4375 99.804688 152.4375 98.652344 C 152.4375 97.503906 153.367188 96.574219 154.515625 96.574219 C 155.667969 96.574219 156.597656 97.503906 156.597656 98.652344 C 156.597656 99.804688 155.667969 100.734375 154.515625 100.734375 Z M 168.539062 100.371094 C 167.59375 100.371094 166.824219 99.601562 166.824219 98.652344 C 166.824219 97.707031 167.59375 96.9375 168.539062 96.9375 C 169.488281 96.9375 170.257812 97.707031 170.257812 98.652344 C 170.257812 99.601562 169.488281 100.371094 168.539062 100.371094 Z M 182.554688 100.007812 C 181.8125 100.007812 181.210938 99.40625 181.210938 98.652344 C 181.210938 97.910156 181.8125 97.308594 182.554688 97.308594 C 183.308594 97.308594 183.910156 97.910156 183.910156 98.652344 C 183.910156 99.40625 183.308594 100.007812 182.554688 100.007812 Z M 196.578125 99.644531 C 196.039062 99.644531 195.597656 99.203125 195.597656 98.652344 C 195.597656 98.113281 196.039062 97.671875 196.578125 97.671875 C 197.128906 97.671875 197.570312 98.113281 197.570312 98.652344 C 197.570312 99.203125 197.128906 99.644531 196.578125 99.644531 Z M 210.601562 99.28125 C 210.257812 99.28125 209.972656 99 209.972656 98.652344 C 209.972656 98.308594 210.257812 98.035156 210.601562 98.035156 C 210.949219 98.035156 211.222656 98.308594 211.222656 98.652344 C 211.222656 99 210.949219 99.28125 210.601562 99.28125 Z M 0.261719 98.910156 C 0.402344 98.910156 0.515625 98.792969 0.515625 98.652344 C 0.515625 98.511719 0.402344 98.398438 0.261719 98.398438 C 0.121094 98.398438 0.00390625 98.511719 0.00390625 98.652344 C 0.00390625 98.792969 0.121094 98.910156 0.261719 98.910156 Z M 0.261719 2.015625 C 0.402344 2.015625 0.515625 1.902344 0.515625 1.761719 C 0.515625 1.617188 0.402344 1.496094 0.261719 1.496094 C 0.121094 1.496094 0.00390625 1.617188 0.00390625 1.761719 C 0.00390625 1.902344 0.121094 2.015625 0.261719 2.015625 Z M 112.425781 2.015625 C 112.566406 2.015625 112.683594 1.902344 112.683594 1.761719 C 112.683594 1.617188 112.566406 1.496094 112.425781 1.496094 C 112.285156 1.496094 112.171875 1.617188 112.171875 1.761719 C 112.171875 1.902344 112.285156 2.015625 112.425781 2.015625 Z M 98.402344 2.015625 C 98.542969 2.015625 98.660156 1.902344 98.660156 1.761719 C 98.660156 1.617188 98.542969 1.496094 98.402344 1.496094 C 98.261719 1.496094 98.144531 1.617188 98.144531 1.761719 C 98.144531 1.902344 98.261719 2.015625 98.402344 2.015625 Z M 84.378906 2.015625 C 84.527344 2.015625 84.644531 1.902344 84.644531 1.761719 C 84.644531 1.617188 84.527344 1.496094 84.378906 1.496094 C 84.238281 1.496094 84.121094 1.617188 84.121094 1.761719 C 84.121094 1.902344 84.238281 2.015625 84.378906 2.015625 Z M 70.363281 2.015625 C 70.503906 2.015625 70.621094 1.902344 70.621094 1.761719 C 70.621094 1.617188 70.503906 1.496094 70.363281 1.496094 C 70.222656 1.496094 70.105469 1.617188 70.105469 1.761719 C 70.105469 1.902344 70.222656 2.015625 70.363281 2.015625 Z M 56.339844 2.015625 C 56.480469 2.015625 56.597656 1.902344 56.597656 1.761719 C 56.597656 1.617188 56.480469 1.496094 56.339844 1.496094 C 56.199219 1.496094 56.082031 1.617188 56.082031 1.761719 C 56.082031 1.902344 56.199219 2.015625 56.339844 2.015625 Z M 42.324219 2.015625 C 42.464844 2.015625 42.582031 1.902344 42.582031 1.761719 C 42.582031 1.617188 42.464844 1.496094 42.324219 1.496094 C 42.175781 1.496094 42.058594 1.617188 42.058594 1.761719 C 42.058594 1.902344 42.175781 2.015625 42.324219 2.015625 Z M 28.300781 2.015625 C 28.441406 2.015625 28.554688 1.902344 28.554688 1.761719 C 28.554688 1.617188 28.441406 1.496094 28.300781 1.496094 C 28.160156 1.496094 28.042969 1.617188 28.042969 1.761719 C 28.042969 1.902344 28.160156 2.015625 28.300781 2.015625 Z M 14.277344 2.015625 C 14.417969 2.015625 14.53125 1.902344 14.53125 1.761719 C 14.53125 1.617188 14.417969 1.496094 14.277344 1.496094 C 14.136719 1.496094 14.019531 1.617188 14.019531 1.761719 C 14.019531 1.902344 14.136719 2.015625 14.277344 2.015625 Z M 0.261719 15.855469 C 0.402344 15.855469 0.515625 15.738281 0.515625 15.597656 C 0.515625 15.457031 0.402344 15.339844 0.261719 15.339844 C 0.121094 15.339844 0.00390625 15.457031 0.00390625 15.597656 C 0.00390625 15.738281 0.121094 15.855469 0.261719 15.855469 Z M 112.425781 16.269531 C 112.796875 16.269531 113.097656 15.96875 113.097656 15.597656 C 113.097656 15.226562 112.796875 14.925781 112.425781 14.925781 C 112.054688 14.925781 111.753906 15.226562 111.753906 15.597656 C 111.753906 15.96875 112.054688 16.269531 112.425781 16.269531 Z M 98.402344 16.21875 C 98.75 16.21875 99.023438 15.945312 99.023438 15.597656 C 99.023438 15.253906 98.75 14.980469 98.402344 14.980469 C 98.058594 14.980469 97.785156 15.253906 97.785156 15.597656 C 97.785156 15.945312 98.058594 16.21875 98.402344 16.21875 Z M 84.378906 16.171875 C 84.695312 16.171875 84.953125 15.917969 84.953125 15.597656 C 84.953125 15.289062 84.695312 15.03125 84.378906 15.03125 C 84.066406 15.03125 83.8125 15.289062 83.8125 15.597656 C 83.8125 15.917969 84.070312 16.171875 84.378906 16.171875 Z M 70.363281 16.121094 C 70.648438 16.121094 70.875 15.882812 70.875 15.597656 C 70.875 15.316406 70.648438 15.085938 70.363281 15.085938 C 70.082031 15.085938 69.839844 15.316406 69.839844 15.597656 C 69.839844 15.882812 70.082031 16.121094 70.363281 16.121094 Z M 56.339844 16.066406 C 56.597656 16.066406 56.808594 15.855469 56.808594 15.597656 C 56.808594 15.34375 56.597656 15.128906 56.339844 15.128906 C 56.082031 15.128906 55.878906 15.34375 55.878906 15.597656 C 55.878906 15.855469 56.082031 16.066406 56.339844 16.066406 Z M 42.324219 16.015625 C 42.546875 16.015625 42.730469 15.828125 42.730469 15.597656 C 42.730469 15.367188 42.546875 15.183594 42.324219 15.183594 C 42.09375 15.183594 41.910156 15.367188 41.910156 15.597656 C 41.910156 15.828125 42.09375 16.015625 42.324219 16.015625 Z M 28.300781 15.960938 C 28.503906 15.960938 28.664062 15.800781 28.664062 15.597656 C 28.664062 15.402344 28.503906 15.234375 28.300781 15.234375 C 28.097656 15.234375 27.9375 15.402344 27.9375 15.597656 C 27.9375 15.800781 28.097656 15.960938 28.300781 15.960938 Z M 14.277344 15.910156 C 14.453125 15.910156 14.585938 15.765625 14.585938 15.597656 C 14.585938 15.429688 14.453125 15.289062 14.277344 15.289062 C 14.109375 15.289062 13.964844 15.429688 13.964844 15.597656 C 13.964844 15.765625 14.109375 15.910156 14.277344 15.910156 Z M 0.261719 29.703125 C 0.402344 29.703125 0.515625 29.585938 0.515625 29.445312 C 0.515625 29.304688 0.402344 29.1875 0.261719 29.1875 C 0.121094 29.1875 0.00390625 29.304688 0.00390625 29.445312 C 0.00390625 29.585938 0.121094 29.703125 0.261719 29.703125 Z M 112.425781 30.535156 C 113.027344 30.535156 113.515625 30.046875 113.515625 29.445312 C 113.515625 28.84375 113.027344 28.347656 112.425781 28.347656 C 111.824219 28.347656 111.328125 28.84375 111.328125 29.445312 C 111.328125 30.046875 111.824219 30.535156 112.425781 30.535156 Z M 98.402344 30.429688 C 98.953125 30.429688 99.394531 29.984375 99.394531 29.445312 C 99.394531 28.894531 98.953125 28.453125 98.402344 28.453125 C 97.863281 28.453125 97.417969 28.894531 97.417969 29.445312 C 97.417969 29.984375 97.863281 30.429688 98.402344 30.429688 Z M 84.378906 30.320312 C 84.875 30.320312 85.261719 29.933594 85.261719 29.445312 C 85.261719 28.957031 84.875 28.558594 84.378906 28.558594 C 83.890625 28.558594 83.5 28.957031 83.5 29.445312 C 83.503906 29.933594 83.890625 30.320312 84.378906 30.320312 Z M 70.363281 30.222656 C 70.789062 30.222656 71.144531 29.871094 71.144531 29.445312 C 71.144531 29.011719 70.789062 28.664062 70.363281 28.664062 C 69.929688 28.664062 69.585938 29.011719 69.585938 29.445312 C 69.585938 29.871094 69.929688 30.222656 70.363281 30.222656 Z M 56.339844 30.117188 C 56.710938 30.117188 57.011719 29.816406 57.011719 29.445312 C 57.011719 29.074219 56.710938 28.761719 56.339844 28.761719 C 55.96875 28.761719 55.667969 29.074219 55.667969 29.445312 C 55.667969 29.816406 55.96875 30.117188 56.339844 30.117188 Z M 42.324219 30.011719 C 42.632812 30.011719 42.890625 29.753906 42.890625 29.445312 C 42.890625 29.125 42.632812 28.867188 42.324219 28.867188 C 42.007812 28.867188 41.75 29.125 41.75 29.445312 C 41.75 29.753906 42.003906 30.011719 42.324219 30.011719 Z M 28.300781 29.90625 C 28.554688 29.90625 28.769531 29.703125 28.769531 29.445312 C 28.769531 29.1875 28.554688 28.976562 28.300781 28.976562 C 28.042969 28.976562 27.832031 29.1875 27.832031 29.445312 C 27.832031 29.703125 28.042969 29.90625 28.300781 29.90625 Z M 14.277344 29.808594 C 14.480469 29.808594 14.640625 29.640625 14.640625 29.445312 C 14.640625 29.242188 14.480469 29.082031 14.277344 29.082031 C 14.082031 29.082031 13.914062 29.242188 13.914062 29.445312 C 13.914062 29.640625 14.082031 29.808594 14.277344 29.808594 Z M 0.261719 43.539062 C 0.402344 43.539062 0.515625 43.425781 0.515625 43.28125 C 0.515625 43.140625 0.402344 43.027344 0.261719 43.027344 C 0.121094 43.027344 0.00390625 43.140625 0.00390625 43.28125 C 0.00390625 43.425781 0.121094 43.539062 0.261719 43.539062 Z M 112.425781 44.796875 C 113.257812 44.796875 113.933594 44.113281 113.933594 43.28125 C 113.933594 42.449219 113.257812 41.777344 112.425781 41.777344 C 111.59375 41.777344 110.914062 42.449219 110.914062 43.28125 C 110.914062 44.117188 111.59375 44.796875 112.425781 44.796875 Z M 98.402344 44.636719 C 99.148438 44.636719 99.757812 44.035156 99.757812 43.285156 C 99.757812 42.539062 99.144531 41.929688 98.402344 41.929688 C 97.660156 41.929688 97.046875 42.539062 97.046875 43.285156 C 97.046875 44.035156 97.660156 44.636719 98.402344 44.636719 Z M 84.378906 44.476562 C 85.042969 44.476562 85.582031 43.949219 85.582031 43.28125 C 85.582031 42.628906 85.042969 42.085938 84.378906 42.085938 C 83.722656 42.085938 83.183594 42.628906 83.183594 43.28125 C 83.183594 43.949219 83.722656 44.476562 84.378906 44.476562 Z M 70.363281 44.328125 C 70.9375 44.328125 71.398438 43.859375 71.398438 43.28125 C 71.398438 42.707031 70.9375 42.246094 70.363281 42.246094 C 69.789062 42.246094 69.320312 42.707031 69.320312 43.28125 C 69.320312 43.859375 69.789062 44.328125 70.363281 44.328125 Z M 56.339844 44.167969 C 56.828125 44.167969 57.222656 43.769531 57.222656 43.28125 C 57.222656 42.796875 56.824219 42.398438 56.339844 42.398438 C 55.851562 42.398438 55.453125 42.796875 55.453125 43.28125 C 55.453125 43.769531 55.851562 44.167969 56.339844 44.167969 Z M 42.324219 44.007812 C 42.722656 44.007812 43.050781 43.691406 43.050781 43.285156 C 43.050781 42.886719 42.722656 42.558594 42.324219 42.558594 C 41.917969 42.558594 41.589844 42.886719 41.589844 43.285156 C 41.589844 43.691406 41.917969 44.007812 42.324219 44.007812 Z M 28.300781 43.859375 C 28.617188 43.859375 28.867188 43.601562 28.867188 43.285156 C 28.867188 42.972656 28.617188 42.71875 28.300781 42.71875 C 27.980469 42.71875 27.726562 42.972656 27.726562 43.285156 C 27.726562 43.601562 27.980469 43.859375 28.300781 43.859375 Z M 14.277344 43.699219 C 14.507812 43.699219 14.691406 43.515625 14.691406 43.28125 C 14.691406 43.054688 14.507812 42.867188 14.277344 42.867188 C 14.046875 42.867188 13.859375 43.050781 13.859375 43.28125 C 13.859375 43.515625 14.046875 43.699219 14.277344 43.699219 Z M 0.261719 57.386719 C 0.402344 57.386719 0.515625 57.273438 0.515625 57.128906 C 0.515625 56.988281 0.402344 56.875 0.261719 56.875 C 0.121094 56.875 0.00390625 56.988281 0.00390625 57.128906 C 0.00390625 57.273438 0.121094 57.386719 0.261719 57.386719 Z M 112.425781 59.050781 C 113.488281 59.050781 114.347656 58.191406 114.347656 57.128906 C 114.347656 56.066406 113.488281 55.199219 112.425781 55.199219 C 111.363281 55.199219 110.496094 56.066406 110.496094 57.128906 C 110.496094 58.191406 111.363281 59.050781 112.425781 59.050781 Z M 98.402344 58.847656 C 99.351562 58.847656 100.121094 58.078125 100.121094 57.128906 C 100.121094 56.183594 99.351562 55.414062 98.402344 55.414062 C 97.457031 55.414062 96.683594 56.183594 96.683594 57.128906 C 96.683594 58.078125 97.453125 58.847656 98.402344 58.847656 Z M 84.378906 58.636719 C 85.21875 58.636719 85.890625 57.960938 85.890625 57.128906 C 85.890625 56.296875 85.21875 55.617188 84.378906 55.617188 C 83.546875 55.617188 82.871094 56.296875 82.871094 57.128906 C 82.875 57.960938 83.546875 58.636719 84.378906 58.636719 Z M 70.363281 58.433594 C 71.082031 58.433594 71.664062 57.847656 71.664062 57.128906 C 71.664062 56.414062 71.082031 55.828125 70.363281 55.828125 C 69.648438 55.828125 69.0625 56.414062 69.0625 57.128906 C 69.0625 57.847656 69.648438 58.433594 70.363281 58.433594 Z M 56.339844 58.21875 C 56.941406 58.21875 57.429688 57.730469 57.429688 57.128906 C 57.429688 56.527344 56.941406 56.03125 56.339844 56.03125 C 55.738281 56.03125 55.25 56.527344 55.25 57.128906 C 55.25 57.730469 55.738281 58.21875 56.339844 58.21875 Z M 42.324219 58.007812 C 42.8125 58.007812 43.203125 57.617188 43.203125 57.128906 C 43.203125 56.640625 42.8125 56.246094 42.324219 56.246094 C 41.828125 56.246094 41.4375 56.644531 41.4375 57.128906 C 41.4375 57.617188 41.828125 58.007812 42.324219 58.007812 Z M 28.300781 57.804688 C 28.671875 57.804688 28.972656 57.503906 28.972656 57.128906 C 28.972656 56.757812 28.671875 56.449219 28.300781 56.449219 C 27.929688 56.449219 27.628906 56.757812 27.628906 57.128906 C 27.628906 57.503906 27.929688 57.804688 28.300781 57.804688 Z M 14.277344 57.589844 C 14.53125 57.589844 14.746094 57.386719 14.746094 57.128906 C 14.746094 56.875 14.53125 56.660156 14.277344 56.660156 C 14.019531 56.660156 13.816406 56.875 13.816406 57.128906 C 13.816406 57.386719 14.019531 57.589844 14.277344 57.589844 Z M 0.261719 71.226562 C 0.402344 71.226562 0.515625 71.109375 0.515625 70.96875 C 0.515625 70.828125 0.402344 70.710938 0.261719 70.710938 C 0.121094 70.710938 0.00390625 70.828125 0.00390625 70.96875 C 0.00390625 71.109375 0.121094 71.226562 0.261719 71.226562 Z M 112.425781 73.3125 C 113.71875 73.3125 114.765625 72.261719 114.765625 70.96875 C 114.765625 69.675781 113.71875 68.628906 112.425781 68.628906 C 111.132812 68.628906 110.082031 69.675781 110.082031 70.96875 C 110.082031 72.261719 111.132812 73.3125 112.425781 73.3125 Z M 98.402344 73.050781 C 99.554688 73.050781 100.484375 72.121094 100.484375 70.96875 C 100.484375 69.816406 99.554688 68.886719 98.402344 68.886719 C 97.25 68.886719 96.324219 69.816406 96.324219 70.96875 C 96.320312 72.117188 97.25 73.050781 98.402344 73.050781 Z M 84.378906 72.792969 C 85.386719 72.792969 86.203125 71.976562 86.203125 70.96875 C 86.203125 69.96875 85.386719 69.152344 84.378906 69.152344 C 83.378906 69.152344 82.5625 69.96875 82.5625 70.96875 C 82.5625 71.976562 83.378906 72.792969 84.378906 72.792969 Z M 70.363281 72.527344 C 71.222656 72.527344 71.921875 71.835938 71.921875 70.96875 C 71.921875 70.109375 71.222656 69.410156 70.363281 69.410156 C 69.496094 69.410156 68.804688 70.109375 68.804688 70.96875 C 68.804688 71.835938 69.496094 72.527344 70.363281 72.527344 Z M 56.339844 72.269531 C 57.054688 72.269531 57.640625 71.683594 57.640625 70.96875 C 57.640625 70.25 57.054688 69.667969 56.339844 69.667969 C 55.621094 69.667969 55.039062 70.25 55.039062 70.96875 C 55.039062 71.683594 55.621094 72.269531 56.339844 72.269531 Z M 42.324219 72.011719 C 42.890625 72.011719 43.359375 71.542969 43.359375 70.96875 C 43.359375 70.394531 42.890625 69.933594 42.324219 69.933594 C 41.75 69.933594 41.28125 70.394531 41.28125 70.96875 C 41.28125 71.542969 41.75 72.011719 42.324219 72.011719 Z M 28.300781 71.746094 C 28.734375 71.746094 29.078125 71.402344 29.078125 70.96875 C 29.078125 70.542969 28.734375 70.191406 28.300781 70.191406 C 27.867188 70.191406 27.519531 70.542969 27.519531 70.96875 C 27.519531 71.402344 27.867188 71.746094 28.300781 71.746094 Z M 14.277344 71.492188 C 14.570312 71.492188 14.796875 71.261719 14.796875 70.96875 C 14.796875 70.683594 14.570312 70.453125 14.277344 70.453125 C 13.992188 70.453125 13.761719 70.683594 13.761719 70.96875 C 13.761719 71.261719 13.992188 71.492188 14.277344 71.492188 Z M 0.261719 85.070312 C 0.402344 85.070312 0.515625 84.957031 0.515625 84.816406 C 0.515625 84.675781 0.402344 84.558594 0.261719 84.558594 C 0.121094 84.558594 0.00390625 84.675781 0.00390625 84.816406 C 0.00390625 84.957031 0.121094 85.070312 0.261719 85.070312 Z M 112.425781 87.570312 C 113.949219 87.570312 115.179688 86.339844 115.179688 84.816406 C 115.179688 83.292969 113.949219 82.054688 112.425781 82.054688 C 110.902344 82.054688 109.664062 83.292969 109.664062 84.816406 C 109.664062 86.339844 110.902344 87.570312 112.425781 87.570312 Z M 98.402344 87.257812 C 99.757812 87.257812 100.847656 86.160156 100.847656 84.8125 C 100.847656 83.460938 99.757812 82.363281 98.402344 82.363281 C 97.058594 82.363281 95.960938 83.460938 95.960938 84.8125 C 95.957031 86.160156 97.058594 87.257812 98.402344 87.257812 Z M 84.378906 86.949219 C 85.5625 86.949219 86.511719 85.992188 86.511719 84.816406 C 86.511719 83.636719 85.566406 82.683594 84.378906 82.683594 C 83.199219 82.683594 82.246094 83.636719 82.246094 84.816406 C 82.246094 85.992188 83.203125 86.949219 84.378906 86.949219 Z M 70.363281 86.628906 C 71.363281 86.628906 72.1875 85.816406 72.1875 84.816406 C 72.1875 83.804688 71.363281 82.992188 70.363281 82.992188 C 69.355469 82.992188 68.539062 83.804688 68.539062 84.816406 C 68.539062 85.816406 69.355469 86.628906 70.363281 86.628906 Z M 56.339844 86.320312 C 57.171875 86.320312 57.851562 85.648438 57.851562 84.816406 C 57.851562 83.984375 57.171875 83.300781 56.339844 83.300781 C 55.507812 83.300781 54.832031 83.984375 54.832031 84.816406 C 54.835938 85.648438 55.507812 86.320312 56.339844 86.320312 Z M 42.324219 86.011719 C 42.980469 86.011719 43.519531 85.46875 43.519531 84.816406 C 43.519531 84.152344 42.980469 83.621094 42.324219 83.621094 C 41.660156 83.621094 41.128906 84.152344 41.128906 84.816406 C 41.128906 85.46875 41.660156 86.011719 42.324219 86.011719 Z M 28.300781 85.691406 C 28.789062 85.691406 29.183594 85.300781 29.183594 84.816406 C 29.183594 84.328125 28.785156 83.929688 28.300781 83.929688 C 27.8125 83.929688 27.414062 84.328125 27.414062 84.816406 C 27.414062 85.300781 27.8125 85.691406 28.300781 85.691406 Z M 14.277344 85.382812 C 14.59375 85.382812 14.851562 85.125 14.851562 84.816406 C 14.851562 84.496094 14.59375 84.238281 14.277344 84.238281 C 13.964844 84.238281 13.710938 84.496094 13.710938 84.816406 C 13.710938 85.125 13.964844 85.382812 14.277344 85.382812 Z M 112.425781 101.832031 C 114.179688 101.832031 115.597656 100.40625 115.597656 98.652344 C 115.597656 96.898438 114.179688 95.484375 112.425781 95.484375 C 110.671875 95.484375 109.25 96.898438 109.25 98.652344 C 109.246094 100.40625 110.671875 101.832031 112.425781 101.832031 Z M 98.402344 101.46875 C 99.953125 101.46875 101.21875 100.210938 101.21875 98.652344 C 101.21875 97.105469 99.953125 95.847656 98.402344 95.847656 C 96.851562 95.847656 95.597656 97.105469 95.597656 98.652344 C 95.597656 100.210938 96.851562 101.46875 98.402344 101.46875 Z M 84.378906 101.105469 C 85.734375 101.105469 86.832031 100.007812 86.832031 98.652344 C 86.832031 97.308594 85.734375 96.210938 84.378906 96.210938 C 83.03125 96.210938 81.933594 97.308594 81.933594 98.652344 C 81.933594 100.007812 83.03125 101.105469 84.378906 101.105469 Z M 70.363281 100.734375 C 71.515625 100.734375 72.445312 99.804688 72.445312 98.652344 C 72.445312 97.503906 71.515625 96.574219 70.363281 96.574219 C 69.210938 96.574219 68.28125 97.503906 68.28125 98.652344 C 68.28125 99.804688 69.210938 100.734375 70.363281 100.734375 Z M 56.339844 100.371094 C 57.285156 100.371094 58.058594 99.601562 58.058594 98.652344 C 58.058594 97.707031 57.285156 96.9375 56.339844 96.9375 C 55.390625 96.9375 54.621094 97.707031 54.621094 98.652344 C 54.621094 99.601562 55.390625 100.371094 56.339844 100.371094 Z M 42.324219 100.007812 C 43.070312 100.007812 43.671875 99.40625 43.671875 98.652344 C 43.671875 97.910156 43.070312 97.308594 42.324219 97.308594 C 41.570312 97.308594 40.96875 97.910156 40.96875 98.652344 C 40.96875 99.40625 41.570312 100.007812 42.324219 100.007812 Z M 28.300781 99.644531 C 28.847656 99.644531 29.28125 99.203125 29.28125 98.652344 C 29.28125 98.113281 28.847656 97.671875 28.300781 97.671875 C 27.75 97.671875 27.308594 98.113281 27.308594 98.652344 C 27.308594 99.203125 27.75 99.644531 28.300781 99.644531 Z M 14.277344 99.28125 C 14.621094 99.28125 14.90625 99 14.90625 98.652344 C 14.90625 98.308594 14.621094 98.035156 14.277344 98.035156 C 13.929688 98.035156 13.65625 98.308594 13.65625 98.652344 C 13.65625 99 13.929688 99.28125 14.277344 99.28125 Z M 224.617188 126.082031 C 224.476562 126.082031 224.363281 126.195312 224.363281 126.339844 C 224.363281 126.480469 224.476562 126.59375 224.617188 126.59375 C 224.757812 126.59375 224.882812 126.480469 224.882812 126.339844 C 224.882812 126.195312 224.761719 126.082031 224.617188 126.082031 Z M 224.617188 112.242188 C 224.476562 112.242188 224.363281 112.359375 224.363281 112.5 C 224.363281 112.640625 224.476562 112.757812 224.617188 112.757812 C 224.757812 112.757812 224.882812 112.640625 224.882812 112.5 C 224.882812 112.359375 224.761719 112.242188 224.617188 112.242188 Z M 126.476562 109.320312 C 124.722656 109.320312 123.300781 110.746094 123.300781 112.5 C 123.300781 114.253906 124.722656 115.667969 126.476562 115.667969 C 128.230469 115.667969 129.65625 114.253906 129.65625 112.5 C 129.65625 110.746094 128.230469 109.320312 126.476562 109.320312 Z M 140.5 109.738281 C 138.96875 109.738281 137.738281 110.976562 137.738281 112.5 C 137.738281 114.023438 138.96875 115.253906 140.5 115.253906 C 142.023438 115.253906 143.253906 114.023438 143.253906 112.5 C 143.253906 110.976562 142.023438 109.738281 140.5 109.738281 Z M 154.515625 110.15625 C 153.222656 110.15625 152.179688 111.207031 152.179688 112.5 C 152.179688 113.792969 153.222656 114.839844 154.515625 114.839844 C 155.808594 114.839844 156.863281 113.792969 156.863281 112.5 C 156.863281 111.207031 155.808594 110.15625 154.515625 110.15625 Z M 168.539062 110.570312 C 167.476562 110.570312 166.609375 111.4375 166.609375 112.5 C 166.609375 113.5625 167.476562 114.421875 168.539062 114.421875 C 169.601562 114.421875 170.460938 113.5625 170.460938 112.5 C 170.460938 111.4375 169.601562 110.570312 168.539062 110.570312 Z M 182.554688 110.984375 C 181.722656 110.984375 181.050781 111.667969 181.050781 112.5 C 181.050781 113.332031 181.722656 114.003906 182.554688 114.003906 C 183.394531 114.003906 184.070312 113.332031 184.070312 112.5 C 184.070312 111.667969 183.394531 110.984375 182.554688 110.984375 Z M 196.578125 111.402344 C 195.976562 111.402344 195.488281 111.898438 195.488281 112.5 C 195.488281 113.101562 195.976562 113.589844 196.578125 113.589844 C 197.179688 113.589844 197.667969 113.101562 197.667969 112.5 C 197.667969 111.898438 197.179688 111.402344 196.578125 111.402344 Z M 210.601562 111.828125 C 210.230469 111.828125 209.929688 112.128906 209.929688 112.5 C 209.929688 112.871094 210.230469 113.171875 210.601562 113.171875 C 210.976562 113.171875 211.277344 112.871094 211.277344 112.5 C 211.277344 112.128906 210.976562 111.828125 210.601562 111.828125 Z M 224.617188 222.984375 C 224.476562 222.984375 224.363281 223.097656 224.363281 223.238281 C 224.363281 223.382812 224.476562 223.496094 224.617188 223.496094 C 224.757812 223.496094 224.882812 223.382812 224.882812 223.238281 C 224.882812 223.097656 224.761719 222.984375 224.617188 222.984375 Z M 126.476562 222.984375 C 126.335938 222.984375 126.21875 223.097656 126.21875 223.238281 C 126.21875 223.382812 126.335938 223.496094 126.476562 223.496094 C 126.617188 223.496094 126.734375 223.382812 126.734375 223.238281 C 126.734375 223.097656 126.617188 222.984375 126.476562 222.984375 Z M 140.5 222.984375 C 140.351562 222.984375 140.234375 223.097656 140.234375 223.238281 C 140.234375 223.382812 140.351562 223.496094 140.5 223.496094 C 140.640625 223.496094 140.757812 223.382812 140.757812 223.238281 C 140.757812 223.097656 140.644531 222.984375 140.5 222.984375 Z M 154.515625 222.984375 C 154.375 222.984375 154.257812 223.097656 154.257812 223.238281 C 154.257812 223.382812 154.375 223.496094 154.515625 223.496094 C 154.65625 223.496094 154.773438 223.382812 154.773438 223.238281 C 154.773438 223.097656 154.65625 222.984375 154.515625 222.984375 Z M 168.539062 222.984375 C 168.398438 222.984375 168.285156 223.097656 168.285156 223.238281 C 168.285156 223.382812 168.398438 223.496094 168.539062 223.496094 C 168.683594 223.496094 168.796875 223.382812 168.796875 223.238281 C 168.796875 223.097656 168.683594 222.984375 168.539062 222.984375 Z M 182.554688 222.984375 C 182.414062 222.984375 182.296875 223.097656 182.296875 223.238281 C 182.296875 223.382812 182.414062 223.496094 182.554688 223.496094 C 182.707031 223.496094 182.820312 223.382812 182.820312 223.238281 C 182.820312 223.097656 182.707031 222.984375 182.554688 222.984375 Z M 196.578125 222.984375 C 196.4375 222.984375 196.324219 223.097656 196.324219 223.238281 C 196.324219 223.382812 196.4375 223.496094 196.578125 223.496094 C 196.71875 223.496094 196.835938 223.382812 196.835938 223.238281 C 196.835938 223.097656 196.722656 222.984375 196.578125 222.984375 Z M 210.601562 222.984375 C 210.460938 222.984375 210.347656 223.097656 210.347656 223.238281 C 210.347656 223.382812 210.460938 223.496094 210.601562 223.496094 C 210.746094 223.496094 210.859375 223.382812 210.859375 223.238281 C 210.859375 223.097656 210.746094 222.984375 210.601562 222.984375 Z M 224.617188 209.136719 C 224.476562 209.136719 224.363281 209.253906 224.363281 209.394531 C 224.363281 209.535156 224.476562 209.648438 224.617188 209.648438 C 224.757812 209.648438 224.882812 209.535156 224.882812 209.394531 C 224.882812 209.253906 224.761719 209.136719 224.617188 209.136719 Z M 126.476562 208.773438 C 126.132812 208.773438 125.859375 209.046875 125.859375 209.394531 C 125.859375 209.738281 126.132812 210.023438 126.476562 210.023438 C 126.824219 210.023438 127.097656 209.738281 127.097656 209.394531 C 127.097656 209.046875 126.824219 208.773438 126.476562 208.773438 Z M 140.5 208.828125 C 140.183594 208.828125 139.925781 209.082031 139.925781 209.394531 C 139.925781 209.710938 140.183594 209.96875 140.5 209.96875 C 140.8125 209.96875 141.066406 209.710938 141.066406 209.394531 C 141.066406 209.082031 140.8125 208.828125 140.5 208.828125 Z M 154.515625 208.878906 C 154.234375 208.878906 154.003906 209.109375 154.003906 209.394531 C 154.003906 209.6875 154.234375 209.914062 154.515625 209.914062 C 154.808594 209.914062 155.039062 209.6875 155.039062 209.394531 C 155.039062 209.109375 154.808594 208.878906 154.515625 208.878906 Z M 168.539062 208.933594 C 168.285156 208.933594 168.070312 209.136719 168.070312 209.394531 C 168.070312 209.648438 168.285156 209.863281 168.539062 209.863281 C 168.796875 209.863281 169.007812 209.648438 169.007812 209.394531 C 169.011719 209.136719 168.796875 208.933594 168.539062 208.933594 Z M 182.554688 208.984375 C 182.332031 208.984375 182.148438 209.164062 182.148438 209.394531 C 182.148438 209.625 182.332031 209.808594 182.554688 209.808594 C 182.785156 209.808594 182.972656 209.625 182.972656 209.394531 C 182.972656 209.164062 182.785156 208.984375 182.554688 208.984375 Z M 196.578125 209.03125 C 196.382812 209.03125 196.214844 209.199219 196.214844 209.394531 C 196.214844 209.597656 196.382812 209.757812 196.578125 209.757812 C 196.78125 209.757812 196.941406 209.597656 196.941406 209.394531 C 196.941406 209.199219 196.78125 209.03125 196.578125 209.03125 Z M 210.601562 209.082031 C 210.425781 209.082031 210.292969 209.226562 210.292969 209.394531 C 210.292969 209.570312 210.425781 209.703125 210.601562 209.703125 C 210.769531 209.703125 210.914062 209.570312 210.914062 209.394531 C 210.914062 209.226562 210.773438 209.082031 210.601562 209.082031 Z M 224.617188 195.296875 C 224.476562 195.296875 224.363281 195.414062 224.363281 195.554688 C 224.363281 195.695312 224.476562 195.8125 224.617188 195.8125 C 224.757812 195.8125 224.882812 195.695312 224.882812 195.554688 C 224.882812 195.414062 224.761719 195.296875 224.617188 195.296875 Z M 126.476562 194.5625 C 125.929688 194.5625 125.484375 195.007812 125.484375 195.554688 C 125.484375 196.09375 125.929688 196.539062 126.476562 196.539062 C 127.027344 196.539062 127.460938 196.097656 127.460938 195.554688 C 127.460938 195.007812 127.027344 194.5625 126.476562 194.5625 Z M 140.5 194.667969 C 140.003906 194.667969 139.617188 195.070312 139.617188 195.554688 C 139.617188 196.042969 140.003906 196.441406 140.5 196.441406 C 140.988281 196.441406 141.378906 196.042969 141.378906 195.554688 C 141.378906 195.070312 140.988281 194.667969 140.5 194.667969 Z M 154.515625 194.777344 C 154.089844 194.777344 153.738281 195.121094 153.738281 195.554688 C 153.738281 195.980469 154.089844 196.335938 154.515625 196.335938 C 154.949219 196.335938 155.296875 195.980469 155.296875 195.554688 C 155.296875 195.121094 154.949219 194.777344 154.515625 194.777344 Z M 168.539062 194.882812 C 168.167969 194.882812 167.867188 195.183594 167.867188 195.554688 C 167.867188 195.925781 168.167969 196.226562 168.539062 196.226562 C 168.910156 196.226562 169.214844 195.925781 169.214844 195.554688 C 169.214844 195.183594 168.910156 194.882812 168.539062 194.882812 Z M 182.554688 194.980469 C 182.246094 194.980469 181.988281 195.238281 181.988281 195.554688 C 181.988281 195.863281 182.246094 196.121094 182.554688 196.121094 C 182.875 196.121094 183.128906 195.863281 183.128906 195.554688 C 183.128906 195.238281 182.875 194.980469 182.554688 194.980469 Z M 196.578125 195.085938 C 196.324219 195.085938 196.109375 195.296875 196.109375 195.554688 C 196.109375 195.8125 196.324219 196.015625 196.578125 196.015625 C 196.835938 196.015625 197.046875 195.8125 197.046875 195.554688 C 197.050781 195.296875 196.835938 195.085938 196.578125 195.085938 Z M 210.601562 195.191406 C 210.398438 195.191406 210.238281 195.351562 210.238281 195.554688 C 210.238281 195.75 210.398438 195.917969 210.601562 195.917969 C 210.796875 195.917969 210.964844 195.75 210.964844 195.554688 C 210.964844 195.351562 210.796875 195.191406 210.601562 195.191406 Z M 224.617188 181.453125 C 224.476562 181.453125 224.363281 181.566406 224.363281 181.707031 C 224.363281 181.851562 224.476562 181.964844 224.617188 181.964844 C 224.757812 181.964844 224.882812 181.851562 224.882812 181.707031 C 224.882812 181.566406 224.761719 181.453125 224.617188 181.453125 Z M 126.476562 180.363281 C 125.734375 180.363281 125.121094 180.964844 125.121094 181.707031 C 125.121094 182.460938 125.734375 183.0625 126.476562 183.0625 C 127.222656 183.0625 127.832031 182.460938 127.832031 181.707031 C 127.832031 180.964844 127.222656 180.363281 126.476562 180.363281 Z M 140.5 180.511719 C 139.835938 180.511719 139.296875 181.054688 139.296875 181.707031 C 139.296875 182.371094 139.835938 182.902344 140.5 182.902344 C 141.15625 182.902344 141.695312 182.371094 141.695312 181.707031 C 141.695312 181.054688 141.15625 180.511719 140.5 180.511719 Z M 154.515625 180.671875 C 153.941406 180.671875 153.480469 181.132812 153.480469 181.707031 C 153.480469 182.285156 153.941406 182.753906 154.515625 182.753906 C 155.089844 182.753906 155.5625 182.285156 155.5625 181.707031 C 155.5625 181.132812 155.089844 180.671875 154.515625 180.671875 Z M 168.539062 180.832031 C 168.050781 180.832031 167.65625 181.222656 167.65625 181.707031 C 167.65625 182.195312 168.054688 182.59375 168.539062 182.59375 C 169.027344 182.59375 169.425781 182.195312 169.425781 181.707031 C 169.425781 181.222656 169.027344 180.832031 168.539062 180.832031 Z M 182.554688 180.980469 C 182.15625 180.980469 181.828125 181.308594 181.828125 181.707031 C 181.828125 182.113281 182.15625 182.433594 182.554688 182.433594 C 182.960938 182.433594 183.289062 182.117188 183.289062 181.707031 C 183.289062 181.308594 182.960938 180.980469 182.554688 180.980469 Z M 196.578125 181.140625 C 196.269531 181.140625 196.011719 181.398438 196.011719 181.707031 C 196.011719 182.027344 196.269531 182.285156 196.578125 182.285156 C 196.898438 182.285156 197.152344 182.027344 197.152344 181.707031 C 197.15625 181.398438 196.898438 181.140625 196.578125 181.140625 Z M 210.601562 181.300781 C 210.375 181.300781 210.1875 181.480469 210.1875 181.707031 C 210.1875 181.9375 210.371094 182.125 210.601562 182.125 C 210.832031 182.125 211.019531 181.9375 211.019531 181.707031 C 211.019531 181.476562 210.832031 181.300781 210.601562 181.300781 Z M 224.617188 167.613281 C 224.476562 167.613281 224.363281 167.730469 224.363281 167.871094 C 224.363281 168.011719 224.476562 168.125 224.617188 168.125 C 224.757812 168.125 224.882812 168.011719 224.882812 167.871094 C 224.882812 167.726562 224.761719 167.613281 224.617188 167.613281 Z M 126.476562 166.152344 C 125.53125 166.152344 124.757812 166.921875 124.757812 167.871094 C 124.757812 168.816406 125.527344 169.589844 126.476562 169.589844 C 127.425781 169.589844 128.195312 168.816406 128.195312 167.871094 C 128.195312 166.921875 127.425781 166.152344 126.476562 166.152344 Z M 140.5 166.355469 C 139.660156 166.355469 138.988281 167.039062 138.988281 167.871094 C 138.988281 168.703125 139.660156 169.375 140.5 169.375 C 141.332031 169.375 142.007812 168.703125 142.007812 167.871094 C 142.007812 167.039062 141.332031 166.355469 140.5 166.355469 Z M 154.515625 166.570312 C 153.800781 166.570312 153.214844 167.152344 153.214844 167.871094 C 153.214844 168.585938 153.800781 169.171875 154.515625 169.171875 C 155.234375 169.171875 155.816406 168.585938 155.816406 167.871094 C 155.816406 167.152344 155.234375 166.570312 154.515625 166.570312 Z M 168.539062 166.773438 C 167.9375 166.773438 167.449219 167.269531 167.449219 167.871094 C 167.449219 168.472656 167.9375 168.960938 168.539062 168.960938 C 169.140625 168.960938 169.628906 168.472656 169.628906 167.871094 C 169.628906 167.269531 169.140625 166.773438 168.539062 166.773438 Z M 182.554688 166.984375 C 182.066406 166.984375 181.679688 167.382812 181.679688 167.871094 C 181.679688 168.355469 182.066406 168.753906 182.554688 168.753906 C 183.050781 168.753906 183.441406 168.355469 183.441406 167.871094 C 183.441406 167.382812 183.050781 166.984375 182.554688 166.984375 Z M 196.578125 167.199219 C 196.207031 167.199219 195.90625 167.5 195.90625 167.871094 C 195.90625 168.242188 196.207031 168.542969 196.578125 168.542969 C 196.949219 168.542969 197.253906 168.242188 197.253906 167.871094 C 197.253906 167.5 196.949219 167.199219 196.578125 167.199219 Z M 210.601562 167.402344 C 210.347656 167.402344 210.132812 167.613281 210.132812 167.871094 C 210.132812 168.128906 210.347656 168.332031 210.601562 168.332031 C 210.859375 168.332031 211.0625 168.128906 211.0625 167.871094 C 211.0625 167.613281 210.859375 167.402344 210.601562 167.402344 Z M 224.617188 153.765625 C 224.476562 153.765625 224.363281 153.882812 224.363281 154.023438 C 224.363281 154.164062 224.476562 154.28125 224.617188 154.28125 C 224.757812 154.28125 224.882812 154.164062 224.882812 154.023438 C 224.882812 153.882812 224.761719 153.765625 224.617188 153.765625 Z M 126.476562 151.941406 C 125.324219 151.941406 124.398438 152.871094 124.398438 154.023438 C 124.398438 155.175781 125.324219 156.101562 126.476562 156.101562 C 127.628906 156.101562 128.558594 155.175781 128.558594 154.023438 C 128.558594 152.871094 127.628906 151.941406 126.476562 151.941406 Z M 140.5 152.207031 C 139.492188 152.207031 138.675781 153.023438 138.675781 154.023438 C 138.675781 155.03125 139.492188 155.847656 140.5 155.847656 C 141.5 155.847656 142.316406 155.03125 142.316406 154.023438 C 142.316406 153.023438 141.5 152.207031 140.5 152.207031 Z M 154.515625 152.464844 C 153.65625 152.464844 152.957031 153.164062 152.957031 154.023438 C 152.957031 154.890625 153.65625 155.589844 154.515625 155.589844 C 155.382812 155.589844 156.074219 154.890625 156.074219 154.023438 C 156.074219 153.164062 155.382812 152.464844 154.515625 152.464844 Z M 168.539062 152.722656 C 167.824219 152.722656 167.238281 153.304688 167.238281 154.023438 C 167.238281 154.742188 167.824219 155.324219 168.539062 155.324219 C 169.257812 155.324219 169.839844 154.742188 169.839844 154.023438 C 169.839844 153.304688 169.257812 152.722656 168.539062 152.722656 Z M 182.554688 152.988281 C 181.988281 152.988281 181.519531 153.449219 181.519531 154.023438 C 181.519531 154.597656 181.988281 155.066406 182.554688 155.066406 C 183.128906 155.066406 183.601562 154.597656 183.601562 154.023438 C 183.601562 153.449219 183.128906 152.988281 182.554688 152.988281 Z M 196.578125 153.242188 C 196.15625 153.242188 195.800781 153.597656 195.800781 154.023438 C 195.800781 154.457031 196.15625 154.800781 196.578125 154.800781 C 197.011719 154.800781 197.359375 154.457031 197.359375 154.023438 C 197.359375 153.597656 197.011719 153.242188 196.578125 153.242188 Z M 210.601562 153.507812 C 210.308594 153.507812 210.082031 153.738281 210.082031 154.023438 C 210.082031 154.316406 210.308594 154.546875 210.601562 154.546875 C 210.886719 154.546875 211.117188 154.316406 211.117188 154.023438 C 211.117188 153.742188 210.886719 153.507812 210.601562 153.507812 Z M 224.617188 139.929688 C 224.476562 139.929688 224.363281 140.042969 224.363281 140.183594 C 224.363281 140.324219 224.476562 140.441406 224.617188 140.441406 C 224.757812 140.441406 224.882812 140.324219 224.882812 140.183594 C 224.882812 140.042969 224.761719 139.929688 224.617188 139.929688 Z M 126.476562 137.734375 C 125.121094 137.734375 124.035156 138.832031 124.035156 140.1875 C 124.035156 141.53125 125.121094 142.628906 126.476562 142.628906 C 127.832031 142.628906 128.921875 141.53125 128.921875 140.1875 C 128.921875 138.832031 127.832031 137.734375 126.476562 137.734375 Z M 140.5 138.050781 C 139.316406 138.050781 138.367188 139.007812 138.367188 140.1875 C 138.367188 141.363281 139.3125 142.320312 140.5 142.320312 C 141.679688 142.320312 142.636719 141.363281 142.636719 140.1875 C 142.636719 139.007812 141.679688 138.050781 140.5 138.050781 Z M 154.515625 138.363281 C 153.515625 138.363281 152.703125 139.175781 152.703125 140.1875 C 152.703125 141.1875 153.515625 142 154.515625 142 C 155.523438 142 156.339844 141.1875 156.339844 140.1875 C 156.339844 139.175781 155.523438 138.363281 154.515625 138.363281 Z M 168.539062 138.671875 C 167.707031 138.671875 167.027344 139.351562 167.027344 140.183594 C 167.027344 141.015625 167.707031 141.6875 168.539062 141.6875 C 169.371094 141.6875 170.046875 141.015625 170.046875 140.183594 C 170.046875 139.351562 169.371094 138.671875 168.539062 138.671875 Z M 182.554688 138.992188 C 181.898438 138.992188 181.359375 139.523438 181.359375 140.1875 C 181.359375 140.839844 181.898438 141.382812 182.554688 141.382812 C 183.21875 141.382812 183.757812 140.839844 183.757812 140.1875 C 183.757812 139.519531 183.21875 138.992188 182.554688 138.992188 Z M 196.578125 139.300781 C 196.09375 139.300781 195.695312 139.699219 195.695312 140.183594 C 195.695312 140.671875 196.09375 141.070312 196.578125 141.070312 C 197.066406 141.070312 197.464844 140.671875 197.464844 140.183594 C 197.464844 139.699219 197.066406 139.300781 196.578125 139.300781 Z M 210.601562 139.609375 C 210.285156 139.609375 210.027344 139.867188 210.027344 140.1875 C 210.027344 140.496094 210.285156 140.753906 210.601562 140.753906 C 210.914062 140.753906 211.167969 140.496094 211.167969 140.1875 C 211.167969 139.867188 210.914062 139.609375 210.601562 139.609375 Z M 126.476562 123.53125 C 124.925781 123.53125 123.660156 124.789062 123.660156 126.339844 C 123.660156 127.894531 124.929688 129.152344 126.476562 129.152344 C 128.027344 129.152344 129.285156 127.894531 129.285156 126.339844 C 129.285156 124.789062 128.027344 123.53125 126.476562 123.53125 Z M 140.5 123.894531 C 139.144531 123.894531 138.046875 124.992188 138.046875 126.339844 C 138.046875 127.691406 139.144531 128.789062 140.5 128.789062 C 141.847656 128.789062 142.945312 127.691406 142.945312 126.339844 C 142.945312 124.992188 141.847656 123.894531 140.5 123.894531 Z M 154.515625 124.257812 C 153.367188 124.257812 152.4375 125.1875 152.4375 126.339844 C 152.4375 127.488281 153.367188 128.417969 154.515625 128.417969 C 155.667969 128.417969 156.597656 127.488281 156.597656 126.339844 C 156.597656 125.1875 155.667969 124.257812 154.515625 124.257812 Z M 168.539062 124.621094 C 167.59375 124.621094 166.824219 125.390625 166.824219 126.339844 C 166.824219 127.285156 167.59375 128.054688 168.539062 128.054688 C 169.488281 128.054688 170.257812 127.285156 170.257812 126.339844 C 170.257812 125.390625 169.488281 124.621094 168.539062 124.621094 Z M 182.554688 124.992188 C 181.8125 124.992188 181.210938 125.59375 181.210938 126.339844 C 181.210938 127.089844 181.8125 127.691406 182.554688 127.691406 C 183.308594 127.691406 183.910156 127.089844 183.910156 126.339844 C 183.910156 125.59375 183.308594 124.992188 182.554688 124.992188 Z M 196.578125 125.355469 C 196.039062 125.355469 195.597656 125.796875 195.597656 126.339844 C 195.597656 126.886719 196.039062 127.332031 196.578125 127.332031 C 197.128906 127.332031 197.570312 126.886719 197.570312 126.339844 C 197.570312 125.796875 197.128906 125.355469 196.578125 125.355469 Z M 210.601562 125.71875 C 210.257812 125.71875 209.972656 125.992188 209.972656 126.339844 C 209.972656 126.683594 210.257812 126.964844 210.601562 126.964844 C 210.949219 126.964844 211.222656 126.683594 211.222656 126.339844 C 211.222656 125.992188 210.949219 125.71875 210.601562 125.71875 Z M 0.261719 112.242188 C 0.402344 112.242188 0.515625 112.359375 0.515625 112.5 C 0.515625 112.640625 0.402344 112.757812 0.261719 112.757812 C 0.121094 112.757812 0.00390625 112.640625 0.00390625 112.5 C 0.00390625 112.359375 0.121094 112.242188 0.261719 112.242188 Z M 112.425781 108.90625 C 114.410156 108.90625 116.011719 110.515625 116.011719 112.5 C 116.011719 114.484375 114.410156 116.085938 112.425781 116.085938 C 110.441406 116.085938 108.832031 114.484375 108.832031 112.5 C 108.832031 110.515625 110.441406 108.90625 112.425781 108.90625 Z M 98.402344 109.320312 C 100.15625 109.320312 101.582031 110.746094 101.582031 112.5 C 101.582031 114.253906 100.15625 115.667969 98.402344 115.667969 C 96.648438 115.667969 95.226562 114.253906 95.226562 112.5 C 95.222656 110.746094 96.648438 109.320312 98.402344 109.320312 Z M 84.378906 109.738281 C 85.910156 109.738281 87.140625 110.976562 87.140625 112.5 C 87.140625 114.023438 85.910156 115.253906 84.378906 115.253906 C 82.855469 115.253906 81.625 114.023438 81.625 112.5 C 81.625 110.976562 82.855469 109.738281 84.378906 109.738281 Z M 70.363281 110.15625 C 71.65625 110.15625 72.699219 111.207031 72.699219 112.5 C 72.699219 113.792969 71.65625 114.839844 70.363281 114.839844 C 69.070312 114.839844 68.015625 113.792969 68.015625 112.5 C 68.015625 111.207031 69.070312 110.15625 70.363281 110.15625 Z M 56.339844 110.570312 C 57.402344 110.570312 58.269531 111.4375 58.269531 112.5 C 58.269531 113.5625 57.402344 114.421875 56.339844 114.421875 C 55.277344 114.421875 54.417969 113.5625 54.417969 112.5 C 54.417969 111.4375 55.277344 110.570312 56.339844 110.570312 Z M 42.324219 110.984375 C 43.15625 110.984375 43.828125 111.667969 43.828125 112.5 C 43.828125 113.332031 43.15625 114.003906 42.324219 114.003906 C 41.484375 114.003906 40.8125 113.332031 40.8125 112.5 C 40.808594 111.667969 41.484375 110.984375 42.324219 110.984375 Z M 28.300781 111.402344 C 28.902344 111.402344 29.390625 111.898438 29.390625 112.5 C 29.390625 113.101562 28.902344 113.589844 28.300781 113.589844 C 27.699219 113.589844 27.210938 113.101562 27.210938 112.5 C 27.210938 111.898438 27.699219 111.402344 28.300781 111.402344 Z M 14.277344 111.828125 C 14.648438 111.828125 14.957031 112.128906 14.957031 112.5 C 14.957031 112.871094 14.648438 113.171875 14.277344 113.171875 C 13.902344 113.171875 13.601562 112.871094 13.601562 112.5 C 13.601562 112.128906 13.902344 111.828125 14.277344 111.828125 Z M 0.261719 222.984375 C 0.402344 222.984375 0.515625 223.097656 0.515625 223.238281 C 0.515625 223.382812 0.402344 223.496094 0.261719 223.496094 C 0.121094 223.496094 0.00390625 223.382812 0.00390625 223.238281 C 0.00390625 223.097656 0.121094 222.984375 0.261719 222.984375 Z M 112.425781 222.984375 C 112.566406 222.984375 112.683594 223.097656 112.683594 223.238281 C 112.683594 223.382812 112.566406 223.496094 112.425781 223.496094 C 112.285156 223.496094 112.171875 223.382812 112.171875 223.238281 C 112.171875 223.097656 112.285156 222.984375 112.425781 222.984375 Z M 98.402344 222.984375 C 98.542969 222.984375 98.660156 223.097656 98.660156 223.238281 C 98.660156 223.382812 98.542969 223.496094 98.402344 223.496094 C 98.261719 223.496094 98.144531 223.382812 98.144531 223.238281 C 98.144531 223.097656 98.261719 222.984375 98.402344 222.984375 Z M 84.378906 222.984375 C 84.527344 222.984375 84.644531 223.097656 84.644531 223.238281 C 84.644531 223.382812 84.527344 223.496094 84.378906 223.496094 C 84.238281 223.496094 84.121094 223.382812 84.121094 223.238281 C 84.121094 223.097656 84.238281 222.984375 84.378906 222.984375 Z M 70.363281 222.984375 C 70.503906 222.984375 70.621094 223.097656 70.621094 223.238281 C 70.621094 223.382812 70.503906 223.496094 70.363281 223.496094 C 70.222656 223.496094 70.105469 223.382812 70.105469 223.238281 C 70.105469 223.097656 70.222656 222.984375 70.363281 222.984375 Z M 56.339844 222.984375 C 56.480469 222.984375 56.597656 223.097656 56.597656 223.238281 C 56.597656 223.382812 56.480469 223.496094 56.339844 223.496094 C 56.199219 223.496094 56.082031 223.382812 56.082031 223.238281 C 56.082031 223.097656 56.199219 222.984375 56.339844 222.984375 Z M 42.324219 222.984375 C 42.464844 222.984375 42.582031 223.097656 42.582031 223.238281 C 42.582031 223.382812 42.464844 223.496094 42.324219 223.496094 C 42.175781 223.496094 42.058594 223.382812 42.058594 223.238281 C 42.058594 223.097656 42.175781 222.984375 42.324219 222.984375 Z M 28.300781 222.984375 C 28.441406 222.984375 28.554688 223.097656 28.554688 223.238281 C 28.554688 223.382812 28.441406 223.496094 28.300781 223.496094 C 28.160156 223.496094 28.042969 223.382812 28.042969 223.238281 C 28.042969 223.097656 28.160156 222.984375 28.300781 222.984375 Z M 14.277344 222.984375 C 14.417969 222.984375 14.53125 223.097656 14.53125 223.238281 C 14.53125 223.382812 14.417969 223.496094 14.277344 223.496094 C 14.136719 223.496094 14.019531 223.382812 14.019531 223.238281 C 14.019531 223.097656 14.136719 222.984375 14.277344 222.984375 Z M 0.261719 209.136719 C 0.402344 209.136719 0.515625 209.253906 0.515625 209.394531 C 0.515625 209.535156 0.402344 209.648438 0.261719 209.648438 C 0.121094 209.648438 0.00390625 209.535156 0.00390625 209.394531 C 0.00390625 209.253906 0.121094 209.136719 0.261719 209.136719 Z M 112.425781 208.71875 C 112.796875 208.71875 113.097656 209.019531 113.097656 209.394531 C 113.097656 209.765625 112.796875 210.074219 112.425781 210.074219 C 112.054688 210.074219 111.753906 209.765625 111.753906 209.394531 C 111.753906 209.019531 112.054688 208.71875 112.425781 208.71875 Z M 98.402344 208.773438 C 98.75 208.773438 99.023438 209.046875 99.023438 209.394531 C 99.023438 209.738281 98.75 210.023438 98.402344 210.023438 C 98.058594 210.023438 97.785156 209.738281 97.785156 209.394531 C 97.785156 209.046875 98.058594 208.773438 98.402344 208.773438 Z M 84.378906 208.828125 C 84.695312 208.828125 84.953125 209.082031 84.953125 209.394531 C 84.953125 209.710938 84.695312 209.96875 84.378906 209.96875 C 84.066406 209.96875 83.8125 209.710938 83.8125 209.394531 C 83.8125 209.082031 84.070312 208.828125 84.378906 208.828125 Z M 70.363281 208.878906 C 70.648438 208.878906 70.875 209.109375 70.875 209.394531 C 70.875 209.6875 70.648438 209.914062 70.363281 209.914062 C 70.082031 209.914062 69.839844 209.6875 69.839844 209.394531 C 69.839844 209.109375 70.082031 208.878906 70.363281 208.878906 Z M 56.339844 208.933594 C 56.597656 208.933594 56.808594 209.136719 56.808594 209.394531 C 56.808594 209.648438 56.597656 209.863281 56.339844 209.863281 C 56.082031 209.863281 55.878906 209.648438 55.878906 209.394531 C 55.878906 209.136719 56.082031 208.933594 56.339844 208.933594 Z M 42.324219 208.984375 C 42.546875 208.984375 42.730469 209.164062 42.730469 209.394531 C 42.730469 209.625 42.546875 209.808594 42.324219 209.808594 C 42.09375 209.808594 41.910156 209.625 41.910156 209.394531 C 41.910156 209.164062 42.09375 208.984375 42.324219 208.984375 Z M 28.300781 209.03125 C 28.503906 209.03125 28.664062 209.199219 28.664062 209.394531 C 28.664062 209.597656 28.503906 209.757812 28.300781 209.757812 C 28.097656 209.757812 27.9375 209.597656 27.9375 209.394531 C 27.9375 209.199219 28.097656 209.03125 28.300781 209.03125 Z M 14.277344 209.082031 C 14.453125 209.082031 14.585938 209.226562 14.585938 209.394531 C 14.585938 209.570312 14.453125 209.703125 14.277344 209.703125 C 14.109375 209.703125 13.964844 209.570312 13.964844 209.394531 C 13.964844 209.226562 14.109375 209.082031 14.277344 209.082031 Z M 0.261719 195.296875 C 0.402344 195.296875 0.515625 195.414062 0.515625 195.554688 C 0.515625 195.695312 0.402344 195.8125 0.261719 195.8125 C 0.121094 195.8125 0.00390625 195.695312 0.00390625 195.554688 C 0.00390625 195.414062 0.121094 195.296875 0.261719 195.296875 Z M 112.425781 194.464844 C 113.027344 194.464844 113.515625 194.953125 113.515625 195.554688 C 113.515625 196.160156 113.027344 196.644531 112.425781 196.644531 C 111.824219 196.644531 111.328125 196.15625 111.328125 195.554688 C 111.328125 194.953125 111.824219 194.464844 112.425781 194.464844 Z M 98.402344 194.5625 C 98.953125 194.5625 99.394531 195.007812 99.394531 195.554688 C 99.394531 196.09375 98.953125 196.539062 98.402344 196.539062 C 97.863281 196.539062 97.417969 196.097656 97.417969 195.554688 C 97.417969 195.007812 97.863281 194.5625 98.402344 194.5625 Z M 84.378906 194.667969 C 84.875 194.667969 85.261719 195.070312 85.261719 195.554688 C 85.261719 196.042969 84.875 196.441406 84.378906 196.441406 C 83.890625 196.441406 83.5 196.042969 83.5 195.554688 C 83.503906 195.070312 83.890625 194.667969 84.378906 194.667969 Z M 70.363281 194.777344 C 70.789062 194.777344 71.144531 195.121094 71.144531 195.554688 C 71.144531 195.980469 70.789062 196.335938 70.363281 196.335938 C 69.929688 196.335938 69.585938 195.980469 69.585938 195.554688 C 69.585938 195.121094 69.929688 194.777344 70.363281 194.777344 Z M 56.339844 194.882812 C 56.710938 194.882812 57.011719 195.183594 57.011719 195.554688 C 57.011719 195.925781 56.710938 196.226562 56.339844 196.226562 C 55.96875 196.226562 55.667969 195.925781 55.667969 195.554688 C 55.667969 195.183594 55.96875 194.882812 56.339844 194.882812 Z M 42.324219 194.980469 C 42.632812 194.980469 42.890625 195.238281 42.890625 195.554688 C 42.890625 195.863281 42.632812 196.121094 42.324219 196.121094 C 42.007812 196.121094 41.75 195.863281 41.75 195.554688 C 41.75 195.238281 42.003906 194.980469 42.324219 194.980469 Z M 28.300781 195.085938 C 28.554688 195.085938 28.769531 195.296875 28.769531 195.554688 C 28.769531 195.8125 28.554688 196.015625 28.300781 196.015625 C 28.042969 196.015625 27.832031 195.8125 27.832031 195.554688 C 27.832031 195.296875 28.042969 195.085938 28.300781 195.085938 Z M 14.277344 195.191406 C 14.480469 195.191406 14.640625 195.351562 14.640625 195.554688 C 14.640625 195.75 14.480469 195.917969 14.277344 195.917969 C 14.082031 195.917969 13.914062 195.75 13.914062 195.554688 C 13.914062 195.351562 14.082031 195.191406 14.277344 195.191406 Z M 0.261719 181.453125 C 0.402344 181.453125 0.515625 181.566406 0.515625 181.707031 C 0.515625 181.851562 0.402344 181.964844 0.261719 181.964844 C 0.121094 181.964844 0.00390625 181.851562 0.00390625 181.707031 C 0.00390625 181.566406 0.121094 181.453125 0.261719 181.453125 Z M 112.425781 180.203125 C 113.257812 180.203125 113.933594 180.875 113.933594 181.707031 C 113.933594 182.539062 113.257812 183.222656 112.425781 183.222656 C 111.59375 183.222656 110.914062 182.539062 110.914062 181.707031 C 110.914062 180.875 111.59375 180.203125 112.425781 180.203125 Z M 98.402344 180.363281 C 99.148438 180.363281 99.757812 180.964844 99.757812 181.707031 C 99.757812 182.460938 99.144531 183.0625 98.402344 183.0625 C 97.660156 183.0625 97.046875 182.460938 97.046875 181.707031 C 97.046875 180.964844 97.660156 180.363281 98.402344 180.363281 Z M 84.378906 180.511719 C 85.042969 180.511719 85.582031 181.054688 85.582031 181.707031 C 85.582031 182.371094 85.042969 182.902344 84.378906 182.902344 C 83.722656 182.902344 83.183594 182.371094 83.183594 181.707031 C 83.183594 181.054688 83.722656 180.511719 84.378906 180.511719 Z M 70.363281 180.671875 C 70.9375 180.671875 71.398438 181.132812 71.398438 181.707031 C 71.398438 182.285156 70.9375 182.753906 70.363281 182.753906 C 69.789062 182.753906 69.320312 182.285156 69.320312 181.707031 C 69.320312 181.132812 69.789062 180.671875 70.363281 180.671875 Z M 56.339844 180.832031 C 56.828125 180.832031 57.222656 181.222656 57.222656 181.707031 C 57.222656 182.195312 56.824219 182.59375 56.339844 182.59375 C 55.851562 182.59375 55.453125 182.195312 55.453125 181.707031 C 55.453125 181.222656 55.851562 180.832031 56.339844 180.832031 Z M 42.324219 180.980469 C 42.722656 180.980469 43.050781 181.308594 43.050781 181.707031 C 43.050781 182.113281 42.722656 182.433594 42.324219 182.433594 C 41.917969 182.433594 41.589844 182.117188 41.589844 181.707031 C 41.589844 181.308594 41.917969 180.980469 42.324219 180.980469 Z M 28.300781 181.140625 C 28.617188 181.140625 28.867188 181.398438 28.867188 181.707031 C 28.867188 182.027344 28.617188 182.285156 28.300781 182.285156 C 27.980469 182.285156 27.726562 182.027344 27.726562 181.707031 C 27.726562 181.398438 27.980469 181.140625 28.300781 181.140625 Z M 14.277344 181.300781 C 14.507812 181.300781 14.691406 181.480469 14.691406 181.707031 C 14.691406 181.9375 14.507812 182.125 14.277344 182.125 C 14.046875 182.125 13.859375 181.9375 13.859375 181.707031 C 13.859375 181.476562 14.046875 181.300781 14.277344 181.300781 Z M 0.261719 167.613281 C 0.402344 167.613281 0.515625 167.730469 0.515625 167.871094 C 0.515625 168.011719 0.402344 168.125 0.261719 168.125 C 0.121094 168.125 0.00390625 168.011719 0.00390625 167.871094 C 0.00390625 167.726562 0.121094 167.613281 0.261719 167.613281 Z M 112.425781 165.941406 C 113.488281 165.941406 114.347656 166.808594 114.347656 167.871094 C 114.347656 168.933594 113.488281 169.792969 112.425781 169.792969 C 111.363281 169.792969 110.496094 168.933594 110.496094 167.871094 C 110.496094 166.808594 111.363281 165.941406 112.425781 165.941406 Z M 98.402344 166.152344 C 99.351562 166.152344 100.121094 166.921875 100.121094 167.871094 C 100.121094 168.816406 99.351562 169.589844 98.402344 169.589844 C 97.457031 169.589844 96.683594 168.816406 96.683594 167.871094 C 96.683594 166.921875 97.453125 166.152344 98.402344 166.152344 Z M 84.378906 166.355469 C 85.21875 166.355469 85.890625 167.039062 85.890625 167.871094 C 85.890625 168.703125 85.21875 169.375 84.378906 169.375 C 83.546875 169.375 82.871094 168.703125 82.871094 167.871094 C 82.871094 167.039062 83.546875 166.355469 84.378906 166.355469 Z M 70.363281 166.570312 C 71.082031 166.570312 71.664062 167.152344 71.664062 167.871094 C 71.664062 168.585938 71.082031 169.171875 70.363281 169.171875 C 69.648438 169.171875 69.0625 168.585938 69.0625 167.871094 C 69.0625 167.152344 69.648438 166.570312 70.363281 166.570312 Z M 56.339844 166.773438 C 56.941406 166.773438 57.429688 167.269531 57.429688 167.871094 C 57.429688 168.472656 56.941406 168.960938 56.339844 168.960938 C 55.738281 168.960938 55.25 168.472656 55.25 167.871094 C 55.25 167.269531 55.738281 166.773438 56.339844 166.773438 Z M 42.324219 166.984375 C 42.8125 166.984375 43.203125 167.382812 43.203125 167.871094 C 43.203125 168.355469 42.8125 168.753906 42.324219 168.753906 C 41.828125 168.753906 41.4375 168.355469 41.4375 167.871094 C 41.4375 167.382812 41.828125 166.984375 42.324219 166.984375 Z M 28.300781 167.199219 C 28.671875 167.199219 28.972656 167.5 28.972656 167.871094 C 28.972656 168.242188 28.671875 168.542969 28.300781 168.542969 C 27.929688 168.542969 27.628906 168.242188 27.628906 167.871094 C 27.628906 167.5 27.929688 167.199219 28.300781 167.199219 Z M 14.277344 167.402344 C 14.53125 167.402344 14.746094 167.613281 14.746094 167.871094 C 14.746094 168.128906 14.53125 168.332031 14.277344 168.332031 C 14.019531 168.332031 13.816406 168.128906 13.816406 167.871094 C 13.816406 167.613281 14.019531 167.402344 14.277344 167.402344 Z M 0.261719 153.765625 C 0.402344 153.765625 0.515625 153.882812 0.515625 154.023438 C 0.515625 154.164062 0.402344 154.28125 0.261719 154.28125 C 0.121094 154.28125 0.00390625 154.164062 0.00390625 154.023438 C 0.00390625 153.882812 0.121094 153.765625 0.261719 153.765625 Z M 112.425781 151.6875 C 113.71875 151.6875 114.765625 152.730469 114.765625 154.023438 C 114.765625 155.316406 113.71875 156.371094 112.425781 156.371094 C 111.132812 156.371094 110.082031 155.316406 110.082031 154.023438 C 110.082031 152.730469 111.132812 151.6875 112.425781 151.6875 Z M 98.402344 151.941406 C 99.554688 151.941406 100.484375 152.871094 100.484375 154.023438 C 100.484375 155.175781 99.554688 156.101562 98.402344 156.101562 C 97.25 156.101562 96.324219 155.175781 96.324219 154.023438 C 96.324219 152.871094 97.25 151.941406 98.402344 151.941406 Z M 84.378906 152.207031 C 85.386719 152.207031 86.203125 153.023438 86.203125 154.023438 C 86.203125 155.03125 85.386719 155.847656 84.378906 155.847656 C 83.378906 155.847656 82.5625 155.03125 82.5625 154.023438 C 82.5625 153.023438 83.378906 152.207031 84.378906 152.207031 Z M 70.363281 152.464844 C 71.222656 152.464844 71.921875 153.164062 71.921875 154.023438 C 71.921875 154.890625 71.222656 155.589844 70.363281 155.589844 C 69.496094 155.589844 68.804688 154.890625 68.804688 154.023438 C 68.804688 153.164062 69.496094 152.464844 70.363281 152.464844 Z M 56.339844 152.722656 C 57.054688 152.722656 57.640625 153.304688 57.640625 154.023438 C 57.640625 154.742188 57.054688 155.324219 56.339844 155.324219 C 55.621094 155.324219 55.039062 154.742188 55.039062 154.023438 C 55.039062 153.304688 55.621094 152.722656 56.339844 152.722656 Z M 42.324219 152.988281 C 42.890625 152.988281 43.359375 153.449219 43.359375 154.023438 C 43.359375 154.597656 42.890625 155.066406 42.324219 155.066406 C 41.75 155.066406 41.28125 154.597656 41.28125 154.023438 C 41.28125 153.449219 41.75 152.988281 42.324219 152.988281 Z M 28.300781 153.242188 C 28.734375 153.242188 29.078125 153.597656 29.078125 154.023438 C 29.078125 154.457031 28.734375 154.800781 28.300781 154.800781 C 27.867188 154.800781 27.519531 154.457031 27.519531 154.023438 C 27.519531 153.597656 27.867188 153.242188 28.300781 153.242188 Z M 14.277344 153.507812 C 14.570312 153.507812 14.796875 153.738281 14.796875 154.023438 C 14.796875 154.316406 14.570312 154.546875 14.277344 154.546875 C 13.992188 154.546875 13.761719 154.316406 13.761719 154.023438 C 13.761719 153.742188 13.992188 153.507812 14.277344 153.507812 Z M 0.261719 139.929688 C 0.402344 139.929688 0.515625 140.042969 0.515625 140.183594 C 0.515625 140.324219 0.402344 140.441406 0.261719 140.441406 C 0.121094 140.441406 0.00390625 140.324219 0.00390625 140.183594 C 0.00390625 140.042969 0.121094 139.929688 0.261719 139.929688 Z M 112.425781 137.421875 C 113.949219 137.421875 115.179688 138.664062 115.179688 140.1875 C 115.179688 141.707031 113.949219 142.9375 112.425781 142.9375 C 110.902344 142.9375 109.664062 141.707031 109.664062 140.1875 C 109.664062 138.664062 110.902344 137.421875 112.425781 137.421875 Z M 98.402344 137.734375 C 99.757812 137.734375 100.847656 138.832031 100.847656 140.1875 C 100.847656 141.53125 99.757812 142.628906 98.402344 142.628906 C 97.058594 142.628906 95.960938 141.53125 95.960938 140.1875 C 95.957031 138.832031 97.058594 137.734375 98.402344 137.734375 Z M 84.378906 138.050781 C 85.5625 138.050781 86.511719 139.007812 86.511719 140.1875 C 86.511719 141.363281 85.566406 142.320312 84.378906 142.320312 C 83.199219 142.320312 82.246094 141.363281 82.246094 140.1875 C 82.246094 139.007812 83.203125 138.050781 84.378906 138.050781 Z M 70.363281 138.363281 C 71.363281 138.363281 72.1875 139.175781 72.1875 140.1875 C 72.1875 141.1875 71.363281 142 70.363281 142 C 69.355469 142 68.539062 141.1875 68.539062 140.1875 C 68.539062 139.175781 69.355469 138.363281 70.363281 138.363281 Z M 56.339844 138.671875 C 57.171875 138.671875 57.851562 139.351562 57.851562 140.183594 C 57.851562 141.015625 57.171875 141.6875 56.339844 141.6875 C 55.507812 141.6875 54.832031 141.015625 54.832031 140.183594 C 54.835938 139.351562 55.507812 138.671875 56.339844 138.671875 Z M 42.324219 138.992188 C 42.980469 138.992188 43.519531 139.523438 43.519531 140.1875 C 43.519531 140.839844 42.980469 141.382812 42.324219 141.382812 C 41.660156 141.382812 41.128906 140.839844 41.128906 140.1875 C 41.128906 139.519531 41.660156 138.992188 42.324219 138.992188 Z M 28.300781 139.300781 C 28.789062 139.300781 29.183594 139.699219 29.183594 140.183594 C 29.183594 140.671875 28.785156 141.070312 28.300781 141.070312 C 27.8125 141.070312 27.414062 140.671875 27.414062 140.183594 C 27.414062 139.699219 27.8125 139.300781 28.300781 139.300781 Z M 14.277344 139.609375 C 14.59375 139.609375 14.851562 139.867188 14.851562 140.1875 C 14.851562 140.496094 14.59375 140.753906 14.277344 140.753906 C 13.964844 140.753906 13.710938 140.496094 13.710938 140.1875 C 13.710938 139.867188 13.964844 139.609375 14.277344 139.609375 Z M 112.425781 123.167969 C 114.179688 123.167969 115.597656 124.585938 115.597656 126.339844 C 115.597656 128.089844 114.179688 129.515625 112.425781 129.515625 C 110.671875 129.515625 109.25 128.089844 109.25 126.339844 C 109.246094 124.585938 110.671875 123.167969 112.425781 123.167969 Z M 98.402344 123.53125 C 99.953125 123.53125 101.21875 124.789062 101.21875 126.339844 C 101.21875 127.894531 99.953125 129.152344 98.402344 129.152344 C 96.851562 129.152344 95.597656 127.894531 95.597656 126.339844 C 95.597656 124.789062 96.851562 123.53125 98.402344 123.53125 Z M 84.378906 123.894531 C 85.734375 123.894531 86.832031 124.992188 86.832031 126.339844 C 86.832031 127.691406 85.734375 128.789062 84.378906 128.789062 C 83.03125 128.789062 81.933594 127.691406 81.933594 126.339844 C 81.933594 124.992188 83.03125 123.894531 84.378906 123.894531 Z M 70.363281 124.257812 C 71.515625 124.257812 72.445312 125.1875 72.445312 126.339844 C 72.445312 127.488281 71.515625 128.417969 70.363281 128.417969 C 69.210938 128.417969 68.28125 127.488281 68.28125 126.339844 C 68.28125 125.1875 69.210938 124.257812 70.363281 124.257812 Z M 56.339844 124.621094 C 57.285156 124.621094 58.058594 125.390625 58.058594 126.339844 C 58.058594 127.285156 57.285156 128.054688 56.339844 128.054688 C 55.390625 128.054688 54.621094 127.285156 54.621094 126.339844 C 54.621094 125.390625 55.390625 124.621094 56.339844 124.621094 Z M 42.324219 124.992188 C 43.070312 124.992188 43.671875 125.59375 43.671875 126.339844 C 43.671875 127.089844 43.070312 127.691406 42.324219 127.691406 C 41.570312 127.691406 40.96875 127.089844 40.96875 126.339844 C 40.96875 125.59375 41.570312 124.992188 42.324219 124.992188 Z M 28.300781 125.355469 C 28.847656 125.355469 29.28125 125.796875 29.28125 126.339844 C 29.28125 126.886719 28.847656 127.332031 28.300781 127.332031 C 27.75 127.332031 27.308594 126.886719 27.308594 126.339844 C 27.308594 125.796875 27.75 125.355469 28.300781 125.355469 Z M 14.277344 125.71875 C 14.621094 125.71875 14.90625 125.992188 14.90625 126.339844 C 14.90625 126.683594 14.621094 126.964844 14.277344 126.964844 C 13.929688 126.964844 13.65625 126.683594 13.65625 126.339844 C 13.65625 125.992188 13.929688 125.71875 14.277344 125.71875 Z M 14.277344 125.71875 " fill-opacity="1" fill-rule="evenodd"/></g><g fill="#636363" fill-opacity="1"><g transform="translate(110.030188, 113.305743)"><g><path d="M 0.484375 -1.78125 L 0.484375 -0.171875 L 1.328125 -0.171875 L 1.328125 0 L 0.265625 0 L 0.265625 -1.78125 Z M 0.484375 -1.78125 "/></g></g><g transform="translate(111.433215, 113.305743)"><g><path d="M 0.65625 0.03125 C 0.507812 0.03125 0.398438 -0.0078125 0.328125 -0.09375 C 0.253906 -0.175781 0.21875 -0.296875 0.21875 -0.453125 L 0.21875 -1.34375 L 0.40625 -1.34375 L 0.40625 -0.453125 C 0.40625 -0.242188 0.503906 -0.140625 0.703125 -0.140625 C 0.816406 -0.140625 0.910156 -0.179688 0.984375 -0.265625 C 1.054688 -0.347656 1.09375 -0.476562 1.09375 -0.65625 L 1.09375 -1.34375 L 1.28125 -1.34375 L 1.28125 0 L 1.09375 0 L 1.09375 -0.203125 L 1.078125 -0.21875 C 1.023438 -0.132812 0.96875 -0.0703125 0.90625 -0.03125 C 0.84375 0.0078125 0.757812 0.03125 0.65625 0.03125 Z M 0.65625 0.03125 "/></g></g><g transform="translate(112.950032, 113.305743)"><g><path d="M 0.328125 -1.59375 C 0.285156 -1.59375 0.25 -1.601562 0.21875 -1.625 C 0.195312 -1.65625 0.1875 -1.691406 0.1875 -1.734375 C 0.1875 -1.773438 0.195312 -1.804688 0.21875 -1.828125 C 0.25 -1.859375 0.285156 -1.875 0.328125 -1.875 C 0.367188 -1.875 0.398438 -1.859375 0.421875 -1.828125 C 0.453125 -1.804688 0.46875 -1.773438 0.46875 -1.734375 C 0.46875 -1.691406 0.453125 -1.65625 0.421875 -1.625 C 0.398438 -1.601562 0.367188 -1.59375 0.328125 -1.59375 Z M 0.234375 0 L 0.234375 -1.34375 L 0.4375 -1.34375 L 0.4375 0 Z M 0.234375 0 "/></g></g><g transform="translate(113.612203, 113.305743)"><g><path d="M 0.609375 0.03125 C 0.523438 0.03125 0.445312 0.0195312 0.375 0 C 0.300781 -0.03125 0.238281 -0.0625 0.1875 -0.09375 C 0.144531 -0.132812 0.113281 -0.179688 0.09375 -0.234375 L 0.203125 -0.359375 L 0.234375 -0.359375 C 0.273438 -0.285156 0.328125 -0.234375 0.390625 -0.203125 C 0.453125 -0.171875 0.523438 -0.15625 0.609375 -0.15625 C 0.710938 -0.15625 0.785156 -0.171875 0.828125 -0.203125 C 0.878906 -0.242188 0.90625 -0.300781 0.90625 -0.375 C 0.90625 -0.425781 0.890625 -0.46875 0.859375 -0.5 C 0.828125 -0.53125 0.78125 -0.554688 0.71875 -0.578125 L 0.484375 -0.640625 C 0.367188 -0.660156 0.28125 -0.703125 0.21875 -0.765625 C 0.164062 -0.828125 0.140625 -0.90625 0.140625 -1 C 0.140625 -1.070312 0.15625 -1.132812 0.1875 -1.1875 C 0.226562 -1.25 0.285156 -1.289062 0.359375 -1.3125 C 0.429688 -1.34375 0.515625 -1.359375 0.609375 -1.359375 C 0.734375 -1.359375 0.828125 -1.34375 0.890625 -1.3125 C 0.960938 -1.28125 1.019531 -1.234375 1.0625 -1.171875 L 0.953125 -1.0625 L 0.921875 -1.0625 C 0.878906 -1.113281 0.832031 -1.148438 0.78125 -1.171875 C 0.738281 -1.191406 0.679688 -1.203125 0.609375 -1.203125 C 0.515625 -1.203125 0.441406 -1.1875 0.390625 -1.15625 C 0.347656 -1.125 0.328125 -1.078125 0.328125 -1.015625 C 0.328125 -0.960938 0.34375 -0.914062 0.375 -0.875 C 0.414062 -0.84375 0.476562 -0.816406 0.5625 -0.796875 L 0.78125 -0.75 C 0.894531 -0.71875 0.976562 -0.671875 1.03125 -0.609375 C 1.082031 -0.546875 1.109375 -0.46875 1.109375 -0.375 C 1.109375 -0.289062 1.085938 -0.21875 1.046875 -0.15625 C 1.015625 -0.101562 0.957031 -0.0546875 0.875 -0.015625 C 0.800781 0.015625 0.710938 0.03125 0.609375 0.03125 Z M 0.609375 0.03125 "/></g></g></g></svg>