<svg xmlns="http://www.w3.org/2000/svg" xmlns:xlink="http://www.w3.org/1999/xlink" width="900" zoomAndPan="magnify" viewBox="0 0 675 675.000002" height="900" preserveAspectRatio="xMidYMid meet" version="1.0"><defs><clipPath id="a2e9b41768"><path d="M 415 252 L 424 252 L 424 261 L 415 261 Z M 415 252 " clip-rule="nonzero"/></clipPath><clipPath id="0e2d459117"><path d="M 421.019531 249.742188 L 426.976562 255.699219 L 421.816406 260.859375 L 415.859375 254.898438 Z M 421.019531 249.742188 " clip-rule="nonzero"/></clipPath><clipPath id="da2c517b45"><path d="M 415.859375 254.898438 L 423.996094 252.71875 L 421.816406 260.859375 Z M 415.859375 254.898438 " clip-rule="nonzero"/></clipPath><clipPath id="ada1af4100"><path d="M 285 216 L 393 216 L 393 291 L 285 291 Z M 285 216 " clip-rule="nonzero"/></clipPath><clipPath id="17d35a024e"><path d="M 314.667969 199.308594 L 394.386719 229.125 L 363.636719 311.335938 L 283.917969 281.519531 Z M 314.667969 199.308594 " clip-rule="nonzero"/></clipPath><clipPath id="90b134cf54"><path d="M 306.828125 290.035156 L 285.367188 277.648438 L 320.726562 216.375 L 352.777344 247.09375 L 372.058594 220.773438 L 392.015625 235.460938 L 356 284.546875 L 326.363281 256.160156 Z M 306.828125 290.035156 " clip-rule="nonzero"/></clipPath><clipPath id="6cfd0f1d18"><path d="M 275 302 L 401 302 L 401 389 L 275 389 Z M 275 302 " clip-rule="nonzero"/></clipPath><clipPath id="e8fada3925"><path d="M 311.386719 282.710938 L 403.433594 319.1875 L 365.816406 414.109375 L 273.769531 377.632812 Z M 311.386719 282.710938 " clip-rule="nonzero"/></clipPath><clipPath id="dd856f0855"><path d="M 300.222656 388.054688 L 275.539062 373.164062 L 318.046875 302.695312 L 354.632812 339.148438 L 377.652344 308.96875 L 400.535156 326.5 L 357.535156 382.78125 L 323.707031 349.097656 Z M 300.222656 388.054688 " clip-rule="nonzero"/></clipPath><clipPath id="06af25288c"><path d="M 173 263 L 316 263 L 316 476 L 173 476 Z M 173 263 " clip-rule="nonzero"/></clipPath><clipPath id="c8ec6a8a93"><path d="M 293.925781 263.152344 L 315.035156 275.84375 L 194.714844 475.976562 L 173.605469 463.285156 Z M 293.925781 263.152344 " clip-rule="nonzero"/></clipPath><clipPath id="256ab8f10b"><path d="M 293.925781 263.152344 L 315.035156 275.84375 L 194.71875 475.976562 L 173.605469 463.285156 Z M 293.925781 263.152344 " clip-rule="nonzero"/></clipPath><clipPath id="2c59ce818e"><path d="M 193.449219 451.339844 L 455.429688 451.339844 L 455.429688 475.96875 L 193.449219 475.96875 Z M 193.449219 451.339844 " clip-rule="nonzero"/></clipPath><clipPath id="155d5848ff"><path d="M 223 356 L 311 356 L 311 472 L 223 472 Z M 223 356 " clip-rule="nonzero"/></clipPath><clipPath id="3efe5e5eba"><path d="M 285.949219 356.183594 L 310.511719 371.496094 L 247.886719 471.945312 L 223.328125 456.632812 Z M 285.949219 356.183594 " clip-rule="nonzero"/></clipPath><clipPath id="1650444681"><path d="M 285.949219 356.183594 L 310.511719 371.496094 L 247.894531 471.933594 L 223.335938 456.621094 Z M 285.949219 356.183594 " clip-rule="nonzero"/></clipPath><clipPath id="7870c9a5ff"><path d="M 347 235 L 457 235 L 457 367 L 347 367 Z M 347 235 " clip-rule="nonzero"/></clipPath><clipPath id="416dc4af6e"><path d="M 433.507812 235.761719 L 456.199219 252.949219 L 370.179688 366.484375 L 347.492188 349.292969 Z M 433.507812 235.761719 " clip-rule="nonzero"/></clipPath><clipPath id="9c8c9325d4"><path d="M 433.507812 235.761719 L 456.199219 252.949219 L 370.214844 366.4375 L 347.527344 349.246094 Z M 433.507812 235.761719 " clip-rule="nonzero"/></clipPath><clipPath id="a7da038ab1"><path d="M 427 226 L 457 226 L 457 260 L 427 260 Z M 427 226 " clip-rule="nonzero"/></clipPath><clipPath id="92bce3ab0a"><path d="M 470.5 251.449219 L 442.25 268.222656 L 427.726562 243.757812 L 455.976562 226.984375 Z M 470.5 251.449219 " clip-rule="nonzero"/></clipPath><clipPath id="88280d6199"><path d="M 455.976562 226.984375 L 456.375 259.835938 L 427.726562 243.757812 Z M 455.976562 226.984375 " clip-rule="nonzero"/></clipPath><clipPath id="4c39f84964"><path d="M 427.734375 255.296875 L 456.199219 255.296875 L 456.199219 475.976562 L 427.734375 475.976562 Z M 427.734375 255.296875 " clip-rule="nonzero"/></clipPath><clipPath id="2344e2a266"><path d="M 159.632812 444.1875 L 222.699219 444.1875 L 222.699219 475.96875 L 159.632812 475.96875 Z M 159.632812 444.1875 " clip-rule="nonzero"/></clipPath><clipPath id="d48c4bf497"><path d="M 222.699219 475.96875 L 191.199219 444.1875 L 159.703125 475.96875 Z M 222.699219 475.96875 " clip-rule="nonzero"/></clipPath><clipPath id="8d1ec6ca71"><path d="M 426 202 L 479 202 L 479 249 L 426 249 Z M 426 202 " clip-rule="nonzero"/></clipPath><clipPath id="16c53b6fcf"><path d="M 430.625 200.105469 L 481.96875 204.320312 L 478.320312 248.78125 L 426.976562 244.570312 Z M 430.625 200.105469 " clip-rule="nonzero"/></clipPath><clipPath id="b391726e58"><path d="M 426.976562 244.570312 L 456.296875 202.214844 L 478.320312 248.78125 Z M 426.976562 244.570312 " clip-rule="nonzero"/></clipPath><clipPath id="5dcff0f641"><path d="M 443 223 L 457 223 L 457 233 L 443 233 Z M 443 223 " clip-rule="nonzero"/></clipPath><clipPath id="c410ca5933"><path d="M 443.273438 223.21875 L 452.21875 219.226562 L 456.203125 228.152344 L 447.257812 232.144531 Z M 443.273438 223.21875 " clip-rule="nonzero"/></clipPath><clipPath id="adecb9121c"><path d="M 456.199219 228.152344 L 447.257812 232.144531 L 443.273438 223.21875 Z M 456.199219 228.152344 " clip-rule="nonzero"/></clipPath><clipPath id="47ab259e36"><path d="M 456.195312 198.027344 L 515.285156 198.027344 L 515.285156 266.265625 L 456.195312 266.265625 Z M 456.195312 198.027344 " clip-rule="nonzero"/></clipPath><clipPath id="7a0f40a870"><path d="M 456.195312 198.027344 L 515.285156 232.148438 L 456.195312 266.265625 Z M 456.195312 198.027344 " clip-rule="nonzero"/></clipPath></defs><g clip-path="url(#a2e9b41768)"><g clip-path="url(#0e2d459117)"><g clip-path="url(#da2c517b45)"><path fill="#a6a6a6" d="M 421.019531 249.742188 L 426.976562 255.699219 L 421.816406 260.859375 L 415.859375 254.898438 Z M 421.019531 249.742188 " fill-opacity="1" fill-rule="nonzero"/></g></g></g><g clip-path="url(#ada1af4100)"><g clip-path="url(#17d35a024e)"><g clip-path="url(#90b134cf54)"><path fill="#ffffff" d="M 314.667969 199.308594 L 394.386719 229.125 L 363.636719 311.335938 L 283.917969 281.519531 Z M 314.667969 199.308594 " fill-opacity="1" fill-rule="nonzero"/></g></g></g><g clip-path="url(#6cfd0f1d18)"><g clip-path="url(#e8fada3925)"><g clip-path="url(#dd856f0855)"><path fill="#ffffff" d="M 311.386719 282.710938 L 403.433594 319.1875 L 365.816406 414.109375 L 273.769531 377.632812 Z M 311.386719 282.710938 " fill-opacity="1" fill-rule="nonzero"/></g></g></g><g clip-path="url(#06af25288c)"><g clip-path="url(#c8ec6a8a93)"><g clip-path="url(#256ab8f10b)"><path fill="#ffffff" d="M 293.925781 263.152344 L 315.035156 275.84375 L 194.714844 475.976562 L 173.605469 463.285156 Z M 293.925781 263.152344 " fill-opacity="1" fill-rule="nonzero"/></g></g></g><g clip-path="url(#2c59ce818e)"><path fill="#ffffff" d="M 455.429688 451.339844 L 455.429688 475.96875 L 193.433594 475.96875 L 193.433594 451.339844 Z M 455.429688 451.339844 " fill-opacity="1" fill-rule="nonzero"/></g><g clip-path="url(#155d5848ff)"><g clip-path="url(#3efe5e5eba)"><g clip-path="url(#1650444681)"><path fill="#ffffff" d="M 285.949219 356.183594 L 310.511719 371.496094 L 247.886719 471.945312 L 223.328125 456.632812 Z M 285.949219 356.183594 " fill-opacity="1" fill-rule="nonzero"/></g></g></g><g clip-path="url(#7870c9a5ff)"><g clip-path="url(#416dc4af6e)"><g clip-path="url(#9c8c9325d4)"><path fill="#ffffff" d="M 433.507812 235.761719 L 456.199219 252.949219 L 370.246094 366.394531 L 347.558594 349.207031 Z M 433.507812 235.761719 " fill-opacity="1" fill-rule="nonzero"/></g></g></g><g clip-path="url(#a7da038ab1)"><g clip-path="url(#92bce3ab0a)"><g clip-path="url(#88280d6199)"><path fill="#ffffff" d="M 470.5 251.449219 L 442.25 268.222656 L 427.726562 243.757812 L 455.976562 226.984375 Z M 470.5 251.449219 " fill-opacity="1" fill-rule="nonzero"/></g></g></g><g clip-path="url(#4c39f84964)"><path fill="#ffffff" d="M 427.734375 255.296875 L 456.199219 255.296875 L 456.199219 476.015625 L 427.734375 476.015625 Z M 427.734375 255.296875 " fill-opacity="1" fill-rule="nonzero"/></g><g clip-path="url(#2344e2a266)"><g clip-path="url(#d48c4bf497)"><path fill="#ffffff" d="M 222.699219 475.96875 L 159.757812 475.96875 L 159.757812 444.1875 L 222.699219 444.1875 Z M 222.699219 475.96875 " fill-opacity="1" fill-rule="nonzero"/></g></g><g clip-path="url(#8d1ec6ca71)"><g clip-path="url(#16c53b6fcf)"><g clip-path="url(#b391726e58)"><path fill="#ffffff" d="M 430.625 200.105469 L 481.96875 204.320312 L 478.320312 248.78125 L 426.976562 244.570312 Z M 430.625 200.105469 " fill-opacity="1" fill-rule="nonzero"/></g></g></g><g clip-path="url(#5dcff0f641)"><g clip-path="url(#c410ca5933)"><g clip-path="url(#adecb9121c)"><path fill="#ffffff" d="M 443.273438 223.21875 L 452.21875 219.226562 L 456.203125 228.152344 L 447.257812 232.144531 Z M 443.273438 223.21875 " fill-opacity="1" fill-rule="nonzero"/></g></g></g><g clip-path="url(#47ab259e36)"><g clip-path="url(#7a0f40a870)"><path fill="#000000" d="M 515.285156 198.027344 L 515.285156 266.265625 L 456.195312 266.265625 L 456.195312 198.027344 Z M 515.285156 198.027344 " fill-opacity="1" fill-rule="nonzero"/></g></g></svg>